<svg width="48" height="9" viewBox="0 0 48 9" fill="none" xmlns="http://www.w3.org/2000/svg">
<path d="M1.53 8.56875L2.18 5.75875L0 3.86875L2.88 3.61875L4 0.96875L5.12 3.61875L8 3.86875L5.82 5.75875L6.47 8.56875L4 7.07875L1.53 8.56875Z" fill="#FFE234"/>
<path d="M11.53 8.56875L12.18 5.75875L10 3.86875L12.88 3.61875L14 0.96875L15.12 3.61875L18 3.86875L15.82 5.75875L16.47 8.56875L14 7.07875L11.53 8.56875Z" fill="#FFE234"/>
<path d="M21.53 8.56875L22.18 5.75875L20 3.86875L22.88 3.61875L24 0.96875L25.12 3.61875L28 3.86875L25.82 5.75875L26.47 8.56875L24 7.07875L21.53 8.56875Z" fill="#FFE234"/>
<path d="M31.53 8.56875L32.18 5.75875L30 3.86875L32.88 3.61875L34 0.96875L35.12 3.61875L38 3.86875L35.82 5.75875L36.47 8.56875L34 7.07875L31.53 8.56875Z" fill="#FFE234"/>
<path d="M41.53 8.56875L42.18 5.75875L40 3.86875L42.88 3.61875L44 0.96875L45.12 3.61875L48 3.86875L45.82 5.75875L46.47 8.56875L44 7.07875L41.53 8.56875Z" fill="#FFE234" fill-opacity="0.51"/>
<path d="M41.53 8.56875L42.18 5.75875L40 3.86875L42.88 3.61875L44 0.96875V3.46875V4.96875V5.96875V7.07875L41.53 8.56875Z" fill="#FFE234"/>
</svg>
