<svg width="500" height="500" viewBox="0 0 500 500" fill="none" xmlns="http://www.w3.org/2000/svg">
<rect x="0.5" y="0.5" width="499" height="499" rx="31.5" stroke="#FFFEF7" stroke-opacity="0.4"/>
<rect x="29.5" y="32.5" width="264" height="253" rx="15.5" fill="#FFFEF7"/>
<rect x="29.5" y="32.5" width="264" height="253" rx="15.5" stroke="black"/>
<rect x="48.5" y="211.5" width="225" height="49" rx="24.5" fill="#FF79AB"/>
<rect x="48.5" y="211.5" width="225" height="49" rx="24.5" stroke="black"/>
<path d="M95.179 233.099C95.0606 232.716 94.8973 232.373 94.6889 232.07C94.4853 231.762 94.2391 231.499 93.9503 231.281C93.6662 231.063 93.3395 230.9 92.9702 230.791C92.6009 230.678 92.1984 230.621 91.7628 230.621C90.9815 230.621 90.2855 230.817 89.6747 231.21C89.0639 231.603 88.5833 232.181 88.233 232.943C87.8873 233.701 87.7145 234.624 87.7145 235.713C87.7145 236.812 87.8873 237.742 88.233 238.504C88.5786 239.267 89.0592 239.847 89.6747 240.244C90.2902 240.637 91.0052 240.834 91.8196 240.834C92.5582 240.834 93.1974 240.692 93.7372 240.408C94.2817 240.124 94.7008 239.721 94.9943 239.2C95.2879 238.675 95.4347 238.059 95.4347 237.354L96.0312 237.446H92.0824V235.386H97.9844V237.134C97.9844 238.379 97.7192 239.456 97.1889 240.365C96.6586 241.274 95.9295 241.975 95.0014 242.467C94.0734 242.955 93.008 243.199 91.8054 243.199C90.4654 243.199 89.2888 242.898 88.2756 242.297C87.267 241.691 86.4787 240.831 85.9105 239.719C85.3471 238.601 85.0653 237.276 85.0653 235.741C85.0653 234.567 85.2311 233.518 85.5625 232.595C85.8987 231.672 86.3674 230.888 86.9688 230.244C87.5701 229.596 88.2756 229.103 89.0852 228.767C89.8949 228.426 90.7756 228.256 91.7273 228.256C92.5322 228.256 93.2827 228.374 93.9787 228.611C94.6747 228.843 95.2926 229.174 95.8324 229.605C96.3769 230.036 96.8243 230.547 97.1747 231.139C97.5251 231.731 97.7547 232.384 97.8636 233.099H95.179ZM105.248 243.213C104.154 243.213 103.21 242.986 102.414 242.531C101.624 242.072 101.015 241.423 100.589 240.585C100.163 239.742 99.9499 238.75 99.9499 237.609C99.9499 236.487 100.163 235.502 100.589 234.655C101.02 233.803 101.621 233.14 102.393 232.666C103.165 232.188 104.072 231.949 105.113 231.949C105.786 231.949 106.42 232.058 107.017 232.276C107.618 232.489 108.148 232.82 108.608 233.27C109.072 233.72 109.436 234.293 109.701 234.989C109.967 235.68 110.099 236.504 110.099 237.46V238.249H101.157V236.516H107.635C107.63 236.023 107.523 235.585 107.315 235.202C107.107 234.813 106.815 234.508 106.441 234.286C106.072 234.063 105.641 233.952 105.149 233.952C104.623 233.952 104.162 234.08 103.764 234.335C103.366 234.586 103.056 234.918 102.833 235.33C102.616 235.737 102.504 236.184 102.5 236.672V238.185C102.5 238.819 102.616 239.364 102.848 239.818C103.08 240.268 103.404 240.614 103.821 240.855C104.237 241.092 104.725 241.21 105.284 241.21C105.658 241.21 105.996 241.158 106.299 241.054C106.602 240.945 106.865 240.786 107.088 240.578C107.31 240.37 107.478 240.112 107.592 239.804L109.993 240.074C109.841 240.708 109.552 241.262 109.126 241.736C108.705 242.205 108.165 242.569 107.507 242.83C106.849 243.085 106.096 243.213 105.248 243.213ZM114.845 236.608V243H112.274V232.091H114.732V233.945H114.859C115.11 233.334 115.51 232.848 116.06 232.489C116.614 232.129 117.298 231.949 118.112 231.949C118.865 231.949 119.521 232.11 120.08 232.432C120.643 232.754 121.079 233.22 121.386 233.831C121.699 234.442 121.853 235.183 121.848 236.054V243H119.277V236.452C119.277 235.723 119.088 235.152 118.709 234.74C118.335 234.328 117.816 234.122 117.153 234.122C116.704 234.122 116.304 234.222 115.953 234.42C115.607 234.615 115.335 234.896 115.136 235.266C114.942 235.635 114.845 236.082 114.845 236.608ZM129.291 243.213C128.197 243.213 127.253 242.986 126.457 242.531C125.667 242.072 125.058 241.423 124.632 240.585C124.206 239.742 123.993 238.75 123.993 237.609C123.993 236.487 124.206 235.502 124.632 234.655C125.063 233.803 125.664 233.14 126.436 232.666C127.208 232.188 128.115 231.949 129.156 231.949C129.829 231.949 130.463 232.058 131.06 232.276C131.661 232.489 132.191 232.82 132.651 233.27C133.115 233.72 133.479 234.293 133.744 234.989C134.009 235.68 134.142 236.504 134.142 237.46V238.249H125.2V236.516H131.678C131.673 236.023 131.566 235.585 131.358 235.202C131.15 234.813 130.858 234.508 130.484 234.286C130.115 234.063 129.684 233.952 129.192 233.952C128.666 233.952 128.205 234.08 127.807 234.335C127.409 234.586 127.099 234.918 126.876 235.33C126.659 235.737 126.547 236.184 126.543 236.672V238.185C126.543 238.819 126.659 239.364 126.891 239.818C127.123 240.268 127.447 240.614 127.864 240.855C128.28 241.092 128.768 241.21 129.327 241.21C129.701 241.21 130.039 241.158 130.342 241.054C130.645 240.945 130.908 240.786 131.131 240.578C131.353 240.37 131.521 240.112 131.635 239.804L134.036 240.074C133.884 240.708 133.595 241.262 133.169 241.736C132.748 242.205 132.208 242.569 131.55 242.83C130.892 243.085 130.139 243.213 129.291 243.213ZM136.317 243V232.091H138.81V233.909H138.924C139.123 233.279 139.463 232.794 139.946 232.453C140.434 232.107 140.99 231.935 141.615 231.935C141.757 231.935 141.916 231.942 142.091 231.956C142.271 231.965 142.42 231.982 142.539 232.006V234.371C142.43 234.333 142.257 234.3 142.02 234.271C141.788 234.238 141.563 234.222 141.346 234.222C140.877 234.222 140.455 234.323 140.081 234.527C139.712 234.726 139.421 235.003 139.208 235.358C138.995 235.713 138.888 236.123 138.888 236.587V243H136.317ZM147.191 243.22C146.499 243.22 145.877 243.097 145.323 242.851C144.774 242.6 144.338 242.231 144.016 241.743C143.699 241.255 143.54 240.654 143.54 239.939C143.54 239.323 143.654 238.814 143.881 238.412C144.108 238.009 144.418 237.688 144.811 237.446C145.204 237.205 145.647 237.022 146.14 236.899C146.637 236.771 147.15 236.679 147.681 236.622C148.32 236.556 148.838 236.497 149.236 236.445C149.634 236.388 149.923 236.303 150.103 236.189C150.287 236.071 150.38 235.888 150.38 235.642V235.599C150.38 235.064 150.221 234.65 149.904 234.357C149.587 234.063 149.13 233.916 148.533 233.916C147.903 233.916 147.404 234.054 147.034 234.328C146.67 234.603 146.424 234.927 146.296 235.301L143.895 234.96C144.085 234.297 144.397 233.743 144.833 233.298C145.268 232.848 145.801 232.512 146.431 232.29C147.06 232.062 147.757 231.949 148.519 231.949C149.044 231.949 149.568 232.01 150.088 232.134C150.609 232.257 151.085 232.46 151.516 232.744C151.947 233.024 152.292 233.405 152.553 233.888C152.818 234.371 152.951 234.974 152.951 235.699V243H150.479V241.501H150.394C150.238 241.804 150.017 242.089 149.733 242.354C149.454 242.614 149.101 242.825 148.675 242.986C148.254 243.142 147.759 243.22 147.191 243.22ZM147.858 241.331C148.374 241.331 148.822 241.229 149.201 241.026C149.579 240.817 149.871 240.543 150.074 240.202C150.283 239.861 150.387 239.489 150.387 239.087V237.801C150.306 237.867 150.169 237.929 149.975 237.986C149.785 238.043 149.572 238.092 149.336 238.135C149.099 238.178 148.864 238.215 148.632 238.249C148.4 238.282 148.199 238.31 148.029 238.334C147.645 238.386 147.302 238.471 146.999 238.589C146.696 238.708 146.457 238.874 146.282 239.087C146.106 239.295 146.019 239.565 146.019 239.896C146.019 240.37 146.192 240.727 146.537 240.969C146.883 241.21 147.323 241.331 147.858 241.331ZM160.983 232.091V234.08H154.712V232.091H160.983ZM156.26 229.477H158.831V239.719C158.831 240.064 158.883 240.33 158.988 240.514C159.096 240.694 159.239 240.817 159.414 240.884C159.589 240.95 159.783 240.983 159.996 240.983C160.157 240.983 160.304 240.971 160.436 240.947C160.574 240.924 160.678 240.902 160.749 240.884L161.182 242.893C161.045 242.941 160.848 242.993 160.593 243.05C160.342 243.107 160.034 243.14 159.669 243.149C159.025 243.168 158.445 243.071 157.929 242.858C157.413 242.64 157.004 242.304 156.701 241.849C156.402 241.395 156.256 240.827 156.26 240.145V229.477ZM167.846 243.213C166.752 243.213 165.808 242.986 165.012 242.531C164.221 242.072 163.613 241.423 163.187 240.585C162.761 239.742 162.548 238.75 162.548 237.609C162.548 236.487 162.761 235.502 163.187 234.655C163.618 233.803 164.219 233.14 164.991 232.666C165.763 232.188 166.669 231.949 167.711 231.949C168.383 231.949 169.018 232.058 169.614 232.276C170.216 232.489 170.746 232.82 171.205 233.27C171.669 233.72 172.034 234.293 172.299 234.989C172.564 235.68 172.697 236.504 172.697 237.46V238.249H163.755V236.516H170.232C170.228 236.023 170.121 235.585 169.913 235.202C169.704 234.813 169.413 234.508 169.039 234.286C168.67 234.063 168.239 233.952 167.746 233.952C167.221 233.952 166.759 234.08 166.362 234.335C165.964 234.586 165.654 234.918 165.431 235.33C165.213 235.737 165.102 236.184 165.097 236.672V238.185C165.097 238.819 165.213 239.364 165.445 239.818C165.677 240.268 166.002 240.614 166.418 240.855C166.835 241.092 167.323 241.21 167.881 241.21C168.255 241.21 168.594 241.158 168.897 241.054C169.2 240.945 169.463 240.786 169.685 240.578C169.908 240.37 170.076 240.112 170.19 239.804L172.59 240.074C172.439 240.708 172.15 241.262 171.724 241.736C171.302 242.205 170.763 242.569 170.104 242.83C169.446 243.085 168.693 243.213 167.846 243.213ZM182.581 228.455V243H179.946V228.455H182.581ZM185.321 243V232.091H187.778V233.945H187.906C188.134 233.32 188.51 232.832 189.036 232.482C189.561 232.126 190.188 231.949 190.918 231.949C191.656 231.949 192.279 232.129 192.786 232.489C193.297 232.844 193.657 233.329 193.865 233.945H193.979C194.22 233.339 194.627 232.856 195.2 232.496C195.778 232.131 196.462 231.949 197.253 231.949C198.257 231.949 199.076 232.266 199.71 232.901C200.345 233.535 200.662 234.461 200.662 235.678V243H198.084V236.075C198.084 235.398 197.904 234.903 197.544 234.591C197.184 234.274 196.744 234.115 196.223 234.115C195.603 234.115 195.117 234.309 194.767 234.697C194.421 235.081 194.249 235.58 194.249 236.196V243H191.727V235.969C191.727 235.405 191.557 234.955 191.216 234.619C190.88 234.283 190.439 234.115 189.895 234.115C189.526 234.115 189.189 234.21 188.886 234.399C188.583 234.584 188.342 234.847 188.162 235.188C187.982 235.524 187.892 235.917 187.892 236.366V243H185.321ZM206.409 243.22C205.718 243.22 205.096 243.097 204.542 242.851C203.992 242.6 203.557 242.231 203.235 241.743C202.917 241.255 202.759 240.654 202.759 239.939C202.759 239.323 202.873 238.814 203.1 238.412C203.327 238.009 203.637 237.688 204.03 237.446C204.423 237.205 204.866 237.022 205.358 236.899C205.855 236.771 206.369 236.679 206.9 236.622C207.539 236.556 208.057 236.497 208.455 236.445C208.853 236.388 209.141 236.303 209.321 236.189C209.506 236.071 209.598 235.888 209.598 235.642V235.599C209.598 235.064 209.44 234.65 209.123 234.357C208.805 234.063 208.348 233.916 207.752 233.916C207.122 233.916 206.623 234.054 206.253 234.328C205.889 234.603 205.642 234.927 205.515 235.301L203.114 234.96C203.303 234.297 203.616 233.743 204.051 233.298C204.487 232.848 205.02 232.512 205.65 232.29C206.279 232.062 206.975 231.949 207.738 231.949C208.263 231.949 208.786 232.01 209.307 232.134C209.828 232.257 210.304 232.46 210.735 232.744C211.166 233.024 211.511 233.405 211.772 233.888C212.037 234.371 212.169 234.974 212.169 235.699V243H209.698V241.501H209.613C209.456 241.804 209.236 242.089 208.952 242.354C208.673 242.614 208.32 242.825 207.894 242.986C207.472 243.142 206.978 243.22 206.409 243.22ZM207.077 241.331C207.593 241.331 208.041 241.229 208.419 241.026C208.798 240.817 209.089 240.543 209.293 240.202C209.501 239.861 209.605 239.489 209.605 239.087V237.801C209.525 237.867 209.388 237.929 209.194 237.986C209.004 238.043 208.791 238.092 208.554 238.135C208.318 238.178 208.083 238.215 207.851 238.249C207.619 238.282 207.418 238.31 207.248 238.334C206.864 238.386 206.521 238.471 206.218 238.589C205.915 238.708 205.676 238.874 205.5 239.087C205.325 239.295 205.238 239.565 205.238 239.896C205.238 240.37 205.41 240.727 205.756 240.969C206.102 241.21 206.542 241.331 207.077 241.331ZM219.499 247.318C218.576 247.318 217.783 247.193 217.12 246.942C216.457 246.696 215.924 246.364 215.522 245.947C215.119 245.531 214.84 245.069 214.684 244.562L216.999 244.001C217.103 244.214 217.255 244.425 217.453 244.634C217.652 244.847 217.92 245.022 218.256 245.159C218.597 245.301 219.025 245.372 219.542 245.372C220.271 245.372 220.874 245.195 221.353 244.839C221.831 244.489 222.07 243.911 222.07 243.107V241.04H221.942C221.81 241.305 221.615 241.577 221.36 241.857C221.109 242.136 220.775 242.37 220.358 242.56C219.946 242.749 219.428 242.844 218.803 242.844C217.965 242.844 217.205 242.647 216.523 242.254C215.846 241.857 215.306 241.265 214.904 240.479C214.506 239.688 214.307 238.698 214.307 237.51C214.307 236.312 214.506 235.301 214.904 234.477C215.306 233.649 215.848 233.021 216.53 232.595C217.212 232.164 217.972 231.949 218.81 231.949C219.449 231.949 219.975 232.058 220.387 232.276C220.803 232.489 221.135 232.747 221.381 233.05C221.627 233.348 221.814 233.63 221.942 233.895H222.084V232.091H224.62V243.178C224.62 244.11 224.397 244.882 223.952 245.493C223.507 246.104 222.899 246.561 222.127 246.864C221.355 247.167 220.479 247.318 219.499 247.318ZM219.52 240.827C220.065 240.827 220.529 240.694 220.912 240.429C221.296 240.164 221.587 239.783 221.786 239.286C221.985 238.788 222.084 238.192 222.084 237.496C222.084 236.809 221.985 236.208 221.786 235.692C221.592 235.176 221.303 234.776 220.919 234.491C220.541 234.203 220.074 234.058 219.52 234.058C218.947 234.058 218.469 234.207 218.086 234.506C217.702 234.804 217.413 235.214 217.219 235.734C217.025 236.25 216.928 236.838 216.928 237.496C216.928 238.163 217.025 238.748 217.219 239.25C217.418 239.747 217.709 240.135 218.093 240.415C218.481 240.689 218.957 240.827 219.52 240.827ZM232.084 243.213C230.99 243.213 230.046 242.986 229.25 242.531C228.46 242.072 227.851 241.423 227.425 240.585C226.999 239.742 226.786 238.75 226.786 237.609C226.786 236.487 226.999 235.502 227.425 234.655C227.856 233.803 228.457 233.14 229.229 232.666C230.001 232.188 230.908 231.949 231.949 231.949C232.622 231.949 233.256 232.058 233.853 232.276C234.454 232.489 234.984 232.82 235.444 233.27C235.908 233.72 236.272 234.293 236.537 234.989C236.802 235.68 236.935 236.504 236.935 237.46V238.249H227.993V236.516H234.471C234.466 236.023 234.359 235.585 234.151 235.202C233.943 234.813 233.651 234.508 233.277 234.286C232.908 234.063 232.477 233.952 231.985 233.952C231.459 233.952 230.998 234.08 230.6 234.335C230.202 234.586 229.892 234.918 229.669 235.33C229.452 235.737 229.34 236.184 229.336 236.672V238.185C229.336 238.819 229.452 239.364 229.684 239.818C229.916 240.268 230.24 240.614 230.657 240.855C231.073 241.092 231.561 241.21 232.12 241.21C232.494 241.21 232.832 241.158 233.135 241.054C233.438 240.945 233.701 240.786 233.924 240.578C234.146 240.37 234.314 240.112 234.428 239.804L236.828 240.074C236.677 240.708 236.388 241.262 235.962 241.736C235.541 242.205 235.001 242.569 234.343 242.83C233.685 243.085 232.932 243.213 232.084 243.213Z" fill="black"/>
<path d="M49.656 81V64.2H52.536V78.744H60.048V81H49.656ZM67.8579 81.288C66.6579 81.288 65.6019 81.032 64.6899 80.52C63.7779 79.992 63.0659 79.256 62.5539 78.312C62.0419 77.368 61.7859 76.28 61.7859 75.048C61.7859 73.768 62.0339 72.648 62.5299 71.688C63.0419 70.728 63.7539 69.976 64.6659 69.432C65.5939 68.888 66.6659 68.616 67.8819 68.616C69.0659 68.616 70.0979 68.88 70.9779 69.408C71.8579 69.936 72.5379 70.648 73.0179 71.544C73.4979 72.424 73.7379 73.416 73.7379 74.52C73.7379 74.68 73.7379 74.856 73.7379 75.048C73.7379 75.24 73.7219 75.44 73.6899 75.648H63.8499V73.8H70.8339C70.8019 72.92 70.5059 72.232 69.9459 71.736C69.3859 71.224 68.6899 70.968 67.8579 70.968C67.2659 70.968 66.7219 71.104 66.2259 71.376C65.7299 71.648 65.3379 72.056 65.0499 72.6C64.7619 73.128 64.6179 73.8 64.6179 74.616V75.312C64.6179 76.064 64.7539 76.712 65.0259 77.256C65.3139 77.8 65.6979 78.216 66.1779 78.504C66.6739 78.776 67.2259 78.912 67.8339 78.912C68.5059 78.912 69.0579 78.768 69.4899 78.48C69.9379 78.192 70.2659 77.808 70.4739 77.328H73.4019C73.1779 78.08 72.8099 78.76 72.2979 79.368C71.7859 79.96 71.1539 80.432 70.4019 80.784C69.6499 81.12 68.8019 81.288 67.8579 81.288ZM81.4421 81C80.6261 81 79.9141 80.872 79.3061 80.616C78.7141 80.36 78.2501 79.936 77.9141 79.344C77.5781 78.752 77.4101 77.952 77.4101 76.944V71.328H75.3461V68.904H77.4101L77.7461 65.712H80.2901V68.904H83.5781V71.328H80.2901V76.944C80.2901 77.552 80.4181 77.976 80.6741 78.216C80.9461 78.44 81.3941 78.552 82.0181 78.552H83.5061V81H81.4421ZM89.6271 64.2L87.2511 70.008H85.2591L86.5551 64.2H89.6271ZM95.5883 81.288C94.5643 81.288 93.6523 81.12 92.8523 80.784C92.0523 80.432 91.4123 79.952 90.9323 79.344C90.4683 78.736 90.1883 78.032 90.0923 77.232H92.9723C93.0683 77.568 93.2203 77.872 93.4283 78.144C93.6523 78.416 93.9403 78.632 94.2923 78.792C94.6603 78.952 95.0843 79.032 95.5643 79.032C96.0283 79.032 96.4123 78.968 96.7163 78.84C97.0203 78.696 97.2363 78.52 97.3643 78.312C97.5083 78.088 97.5803 77.856 97.5803 77.616C97.5803 77.232 97.4763 76.944 97.2683 76.752C97.0763 76.56 96.7803 76.408 96.3803 76.296C95.9803 76.168 95.5083 76.048 94.9643 75.936C94.4683 75.824 93.9563 75.688 93.4283 75.528C92.9003 75.368 92.4203 75.168 91.9883 74.928C91.5563 74.672 91.2043 74.352 90.9323 73.968C90.6763 73.568 90.5483 73.088 90.5483 72.528C90.5483 71.824 90.7323 71.192 91.1003 70.632C91.4683 70.056 92.0043 69.608 92.7083 69.288C93.4123 68.968 94.2603 68.808 95.2523 68.808C96.6283 68.808 97.7323 69.136 98.5643 69.792C99.4123 70.432 99.9083 71.336 100.052 72.504H97.3163C97.2363 72.056 97.0123 71.704 96.6443 71.448C96.2923 71.192 95.8203 71.064 95.2283 71.064C94.6203 71.064 94.1563 71.184 93.8363 71.424C93.5163 71.648 93.3563 71.944 93.3563 72.312C93.3563 72.552 93.4603 72.768 93.6683 72.96C93.8923 73.152 94.1963 73.312 94.5803 73.44C94.9643 73.568 95.4123 73.696 95.9243 73.824C96.7563 74 97.5163 74.208 98.2043 74.448C98.8923 74.688 99.4443 75.032 99.8603 75.48C100.276 75.928 100.484 76.576 100.484 77.424C100.5 78.176 100.308 78.848 99.9083 79.44C99.5083 80.016 98.9403 80.472 98.2043 80.808C97.4683 81.128 96.5963 81.288 95.5883 81.288ZM114.109 86.568C112.989 86.568 112.005 86.424 111.157 86.136C110.309 85.864 109.645 85.44 109.165 84.864C108.701 84.304 108.469 83.6 108.469 82.752C108.469 82.272 108.589 81.792 108.829 81.312C109.085 80.848 109.461 80.416 109.957 80.016C110.469 79.616 111.117 79.264 111.901 78.96L113.125 80.328C112.389 80.6 111.869 80.928 111.565 81.312C111.261 81.696 111.109 82.088 111.109 82.488C111.109 82.888 111.237 83.224 111.493 83.496C111.765 83.784 112.125 84 112.573 84.144C113.037 84.288 113.549 84.36 114.109 84.36C114.653 84.36 115.125 84.28 115.525 84.12C115.941 83.976 116.261 83.768 116.485 83.496C116.709 83.224 116.821 82.896 116.821 82.512C116.821 82.064 116.653 81.688 116.317 81.384C115.997 81.08 115.357 80.896 114.397 80.832C113.549 80.768 112.805 80.68 112.165 80.568C111.541 80.456 110.997 80.32 110.533 80.16C110.085 79.984 109.701 79.8 109.381 79.608C109.077 79.4 108.813 79.192 108.589 78.984V78.432L111.085 75.792L113.197 76.488L110.413 79.248L111.157 77.904C111.333 78.016 111.501 78.12 111.661 78.216C111.821 78.296 112.029 78.376 112.285 78.456C112.557 78.52 112.901 78.584 113.317 78.648C113.749 78.712 114.301 78.768 114.973 78.816C116.029 78.912 116.893 79.112 117.565 79.416C118.237 79.72 118.725 80.128 119.029 80.64C119.349 81.136 119.509 81.736 119.509 82.44C119.509 83.144 119.309 83.808 118.909 84.432C118.525 85.056 117.933 85.568 117.133 85.968C116.349 86.368 115.341 86.568 114.109 86.568ZM114.109 77.424C113.101 77.424 112.237 77.232 111.517 76.848C110.797 76.448 110.245 75.928 109.861 75.288C109.477 74.632 109.285 73.904 109.285 73.104C109.285 72.304 109.477 71.584 109.861 70.944C110.245 70.304 110.797 69.792 111.517 69.408C112.237 69.008 113.101 68.808 114.109 68.808C115.117 68.808 115.981 69.008 116.701 69.408C117.421 69.792 117.973 70.304 118.357 70.944C118.741 71.584 118.933 72.304 118.933 73.104C118.933 73.904 118.741 74.632 118.357 75.288C117.973 75.928 117.421 76.448 116.701 76.848C115.981 77.232 115.117 77.424 114.109 77.424ZM114.109 75.192C114.781 75.192 115.325 75.016 115.741 74.664C116.173 74.296 116.389 73.784 116.389 73.128C116.389 72.472 116.173 71.968 115.741 71.616C115.325 71.248 114.781 71.064 114.109 71.064C113.421 71.064 112.861 71.248 112.429 71.616C112.013 71.968 111.805 72.472 111.805 73.128C111.805 73.784 112.013 74.296 112.429 74.664C112.861 75.016 113.421 75.192 114.109 75.192ZM116.053 71.208L115.501 69.096H120.469V70.896L116.053 71.208ZM128.256 81.288C127.056 81.288 126 81.032 125.088 80.52C124.176 79.992 123.464 79.256 122.952 78.312C122.44 77.368 122.184 76.28 122.184 75.048C122.184 73.768 122.432 72.648 122.928 71.688C123.44 70.728 124.152 69.976 125.064 69.432C125.992 68.888 127.064 68.616 128.28 68.616C129.464 68.616 130.496 68.88 131.376 69.408C132.256 69.936 132.936 70.648 133.416 71.544C133.896 72.424 134.136 73.416 134.136 74.52C134.136 74.68 134.136 74.856 134.136 75.048C134.136 75.24 134.12 75.44 134.088 75.648H124.248V73.8H131.232C131.2 72.92 130.904 72.232 130.344 71.736C129.784 71.224 129.088 70.968 128.256 70.968C127.664 70.968 127.12 71.104 126.624 71.376C126.128 71.648 125.736 72.056 125.448 72.6C125.16 73.128 125.016 73.8 125.016 74.616V75.312C125.016 76.064 125.152 76.712 125.424 77.256C125.712 77.8 126.096 78.216 126.576 78.504C127.072 78.776 127.624 78.912 128.232 78.912C128.904 78.912 129.456 78.768 129.888 78.48C130.336 78.192 130.664 77.808 130.872 77.328H133.8C133.576 78.08 133.208 78.76 132.696 79.368C132.184 79.96 131.552 80.432 130.8 80.784C130.048 81.12 129.2 81.288 128.256 81.288ZM141.841 81C141.025 81 140.313 80.872 139.705 80.616C139.113 80.36 138.649 79.936 138.313 79.344C137.977 78.752 137.809 77.952 137.809 76.944V71.328H135.745V68.904H137.809L138.145 65.712H140.689V68.904H143.977V71.328H140.689V76.944C140.689 77.552 140.817 77.976 141.073 78.216C141.345 78.44 141.793 78.552 142.417 78.552H143.905V81H141.841ZM57.216 112.288C55.536 112.288 54.088 111.928 52.872 111.208C51.656 110.472 50.72 109.456 50.064 108.16C49.408 106.848 49.08 105.336 49.08 103.624C49.08 101.896 49.408 100.384 50.064 99.088C50.72 97.776 51.656 96.752 52.872 96.016C54.088 95.28 55.536 94.912 57.216 94.912C59.216 94.912 60.848 95.408 62.112 96.4C63.392 97.376 64.2 98.76 64.536 100.552H61.368C61.144 99.608 60.68 98.864 59.976 98.32C59.288 97.776 58.36 97.504 57.192 97.504C56.12 97.504 55.2 97.752 54.432 98.248C53.664 98.728 53.072 99.432 52.656 100.36C52.24 101.272 52.032 102.36 52.032 103.624C52.032 104.888 52.24 105.976 52.656 106.888C53.072 107.784 53.664 108.48 54.432 108.976C55.2 109.456 56.12 109.696 57.192 109.696C58.36 109.696 59.288 109.448 59.976 108.952C60.68 108.44 61.136 107.736 61.344 106.84H64.536C64.216 108.536 63.416 109.872 62.136 110.848C60.856 111.808 59.216 112.288 57.216 112.288ZM67.233 112V99.904H69.801L70.065 102.16C70.353 101.632 70.713 101.184 71.145 100.816C71.577 100.432 72.081 100.136 72.657 99.928C73.249 99.72 73.897 99.616 74.601 99.616V102.664H73.593C73.113 102.664 72.657 102.728 72.225 102.856C71.793 102.968 71.417 103.16 71.097 103.432C70.793 103.688 70.553 104.048 70.377 104.512C70.201 104.96 70.113 105.528 70.113 106.216V112H67.233ZM81.9908 112.288C80.7908 112.288 79.7348 112.032 78.8228 111.52C77.9108 110.992 77.1988 110.256 76.6868 109.312C76.1748 108.368 75.9188 107.28 75.9188 106.048C75.9188 104.768 76.1668 103.648 76.6628 102.688C77.1748 101.728 77.8868 100.976 78.7988 100.432C79.7268 99.888 80.7988 99.616 82.0148 99.616C83.1988 99.616 84.2308 99.88 85.1108 100.408C85.9908 100.936 86.6708 101.648 87.1508 102.544C87.6308 103.424 87.8708 104.416 87.8708 105.52C87.8708 105.68 87.8708 105.856 87.8708 106.048C87.8708 106.24 87.8548 106.44 87.8228 106.648H77.9828V104.8H84.9668C84.9348 103.92 84.6388 103.232 84.0788 102.736C83.5188 102.224 82.8228 101.968 81.9908 101.968C81.3988 101.968 80.8548 102.104 80.3588 102.376C79.8628 102.648 79.4708 103.056 79.1828 103.6C78.8948 104.128 78.7508 104.8 78.7508 105.616V106.312C78.7508 107.064 78.8868 107.712 79.1588 108.256C79.4468 108.8 79.8308 109.216 80.3108 109.504C80.8068 109.776 81.3588 109.912 81.9668 109.912C82.6388 109.912 83.1908 109.768 83.6228 109.48C84.0708 109.192 84.3988 108.808 84.6068 108.328H87.5348C87.3108 109.08 86.9428 109.76 86.4308 110.368C85.9188 110.96 85.2868 111.432 84.5348 111.784C83.7828 112.12 82.9348 112.288 81.9908 112.288ZM94.5853 112.288C93.5933 112.288 92.7693 112.12 92.1133 111.784C91.4573 111.448 90.9693 111 90.6493 110.44C90.3293 109.88 90.1693 109.272 90.1693 108.616C90.1693 107.848 90.3613 107.184 90.7453 106.624C91.1453 106.064 91.7293 105.632 92.4973 105.328C93.2653 105.008 94.2093 104.848 95.3293 104.848H98.3773C98.3773 104.208 98.2893 103.68 98.1133 103.264C97.9373 102.832 97.6653 102.512 97.2973 102.304C96.9293 102.096 96.4573 101.992 95.8813 101.992C95.2253 101.992 94.6653 102.144 94.2013 102.448C93.7373 102.736 93.4493 103.184 93.3373 103.792H90.5053C90.6013 102.928 90.8893 102.192 91.3693 101.584C91.8493 100.96 92.4813 100.48 93.2653 100.144C94.0653 99.792 94.9373 99.616 95.8813 99.616C97.0173 99.616 97.9853 99.816 98.7853 100.216C99.5853 100.6 100.193 101.16 100.609 101.896C101.041 102.616 101.257 103.488 101.257 104.512V112H98.8093L98.5213 110.056C98.3613 110.376 98.1533 110.672 97.8973 110.944C97.6573 111.216 97.3773 111.456 97.0573 111.664C96.7373 111.856 96.3693 112.008 95.9533 112.12C95.5533 112.232 95.0973 112.288 94.5853 112.288ZM95.2333 110.008C95.6973 110.008 96.1053 109.928 96.4573 109.768C96.8253 109.592 97.1373 109.352 97.3933 109.048C97.6653 108.728 97.8733 108.376 98.0173 107.992C98.1613 107.608 98.2573 107.2 98.3053 106.768V106.72H95.6413C95.0813 106.72 94.6173 106.792 94.2493 106.936C93.8813 107.064 93.6173 107.256 93.4573 107.512C93.2973 107.768 93.2173 108.064 93.2173 108.4C93.2173 108.736 93.2973 109.024 93.4573 109.264C93.6173 109.504 93.8493 109.688 94.1533 109.816C94.4573 109.944 94.8173 110.008 95.2333 110.008ZM109.333 112C108.517 112 107.805 111.872 107.197 111.616C106.605 111.36 106.141 110.936 105.805 110.344C105.469 109.752 105.301 108.952 105.301 107.944V102.328H103.237V99.904H105.301L105.637 96.712H108.181V99.904H111.469V102.328H108.181V107.944C108.181 108.552 108.309 108.976 108.565 109.216C108.837 109.44 109.285 109.552 109.909 109.552H111.397V112H109.333ZM114.158 112V99.904H117.038V112H114.158ZM115.598 97.984C115.07 97.984 114.63 97.824 114.278 97.504C113.942 97.168 113.774 96.76 113.774 96.28C113.774 95.784 113.942 95.384 114.278 95.08C114.63 94.76 115.07 94.6 115.598 94.6C116.126 94.6 116.558 94.76 116.894 95.08C117.246 95.384 117.422 95.784 117.422 96.28C117.422 96.76 117.246 97.168 116.894 97.504C116.558 97.824 116.126 97.984 115.598 97.984ZM123.631 112L119.167 99.904H122.191L125.383 109.264L128.575 99.904H131.551L127.087 112H123.631ZM138.522 112.288C137.322 112.288 136.266 112.032 135.354 111.52C134.442 110.992 133.73 110.256 133.218 109.312C132.706 108.368 132.45 107.28 132.45 106.048C132.45 104.768 132.698 103.648 133.194 102.688C133.706 101.728 134.418 100.976 135.33 100.432C136.258 99.888 137.33 99.616 138.546 99.616C139.73 99.616 140.762 99.88 141.642 100.408C142.522 100.936 143.202 101.648 143.682 102.544C144.162 103.424 144.402 104.416 144.402 105.52C144.402 105.68 144.402 105.856 144.402 106.048C144.402 106.24 144.386 106.44 144.354 106.648H134.514V104.8H141.498C141.466 103.92 141.17 103.232 140.61 102.736C140.05 102.224 139.354 101.968 138.522 101.968C137.93 101.968 137.386 102.104 136.89 102.376C136.394 102.648 136.002 103.056 135.714 103.6C135.426 104.128 135.282 104.8 135.282 105.616V106.312C135.282 107.064 135.418 107.712 135.69 108.256C135.978 108.8 136.362 109.216 136.842 109.504C137.338 109.776 137.89 109.912 138.498 109.912C139.17 109.912 139.722 109.768 140.154 109.48C140.602 109.192 140.93 108.808 141.138 108.328H144.066C143.842 109.08 143.474 109.76 142.962 110.368C142.45 110.96 141.818 111.432 141.066 111.784C140.314 112.12 139.466 112.288 138.522 112.288Z" fill="black"/>
<rect x="48.5" y="153.5" width="225" height="46" rx="23" fill="#FFFEF7"/>
<rect x="48.5" y="153.5" width="225" height="46" rx="23" stroke="black"/>
<path d="M80.5568 182L77.3295 170.364H79.1761L81.4432 179.375H81.5511L83.9091 170.364H85.7386L88.0966 179.381H88.2045L90.4659 170.364H92.3182L89.0852 182H87.3182L84.8693 173.284H84.7784L82.3295 182H80.5568ZM95.4815 176.818V182H93.7827V170.364H95.4588V174.693H95.5668C95.7713 174.223 96.0838 173.85 96.5043 173.574C96.9247 173.297 97.474 173.159 98.152 173.159C98.7505 173.159 99.2732 173.282 99.7202 173.528C100.171 173.775 100.519 174.142 100.766 174.631C101.016 175.116 101.141 175.722 101.141 176.449V182H99.4418V176.653C99.4418 176.013 99.277 175.517 98.9474 175.165C98.6179 174.809 98.1596 174.631 97.5724 174.631C97.1709 174.631 96.8111 174.716 96.4929 174.886C96.1785 175.057 95.9304 175.307 95.7486 175.636C95.5705 175.962 95.4815 176.356 95.4815 176.818ZM105.947 182.193C105.394 182.193 104.894 182.091 104.447 181.886C104 181.678 103.646 181.377 103.385 180.983C103.127 180.589 102.999 180.106 102.999 179.534C102.999 179.042 103.093 178.636 103.283 178.318C103.472 178 103.728 177.748 104.05 177.562C104.372 177.377 104.732 177.237 105.129 177.142C105.527 177.047 105.932 176.975 106.345 176.926C106.868 176.866 107.292 176.816 107.618 176.778C107.944 176.737 108.18 176.67 108.328 176.58C108.476 176.489 108.55 176.341 108.55 176.136V176.097C108.55 175.6 108.41 175.216 108.129 174.943C107.853 174.67 107.44 174.534 106.891 174.534C106.319 174.534 105.868 174.661 105.538 174.915C105.213 175.165 104.987 175.443 104.862 175.75L103.266 175.386C103.455 174.856 103.732 174.428 104.095 174.102C104.463 173.773 104.885 173.534 105.362 173.386C105.839 173.235 106.341 173.159 106.868 173.159C107.216 173.159 107.586 173.201 107.976 173.284C108.37 173.364 108.737 173.511 109.078 173.727C109.423 173.943 109.705 174.252 109.925 174.653C110.144 175.051 110.254 175.568 110.254 176.205V182H108.595V180.807H108.527C108.417 181.027 108.252 181.242 108.033 181.455C107.813 181.667 107.531 181.843 107.186 181.983C106.841 182.123 106.429 182.193 105.947 182.193ZM106.317 180.83C106.786 180.83 107.188 180.737 107.521 180.551C107.858 180.366 108.114 180.123 108.288 179.824C108.466 179.521 108.555 179.197 108.555 178.852V177.727C108.495 177.788 108.377 177.845 108.203 177.898C108.033 177.947 107.838 177.991 107.618 178.028C107.398 178.062 107.184 178.095 106.976 178.125C106.768 178.152 106.593 178.174 106.453 178.193C106.124 178.235 105.822 178.305 105.55 178.403C105.281 178.502 105.065 178.644 104.902 178.83C104.743 179.011 104.663 179.254 104.663 179.557C104.663 179.977 104.819 180.295 105.129 180.511C105.44 180.723 105.836 180.83 106.317 180.83ZM116.591 173.273V174.636H111.824V173.273H116.591ZM113.102 171.182H114.801V179.438C114.801 179.767 114.85 180.015 114.949 180.182C115.047 180.345 115.174 180.456 115.33 180.517C115.489 180.574 115.661 180.602 115.847 180.602C115.983 180.602 116.102 180.593 116.205 180.574C116.307 180.555 116.386 180.54 116.443 180.528L116.75 181.932C116.652 181.97 116.511 182.008 116.33 182.045C116.148 182.087 115.92 182.11 115.648 182.114C115.201 182.121 114.784 182.042 114.398 181.875C114.011 181.708 113.699 181.451 113.46 181.102C113.222 180.754 113.102 180.316 113.102 179.79V171.182ZM120.368 170.364V171.455C120.368 171.777 120.307 172.116 120.186 172.472C120.069 172.824 119.902 173.163 119.686 173.489C119.47 173.814 119.216 174.095 118.925 174.33L118.084 173.727C118.307 173.402 118.5 173.055 118.663 172.688C118.83 172.32 118.913 171.915 118.913 171.472V170.364H120.368ZM127.447 175.403L125.908 175.676C125.843 175.479 125.741 175.292 125.601 175.114C125.464 174.936 125.279 174.79 125.044 174.676C124.809 174.562 124.516 174.506 124.163 174.506C123.682 174.506 123.281 174.614 122.959 174.83C122.637 175.042 122.476 175.316 122.476 175.653C122.476 175.945 122.584 176.18 122.8 176.358C123.016 176.536 123.364 176.682 123.845 176.795L125.232 177.114C126.035 177.299 126.633 177.585 127.027 177.972C127.421 178.358 127.618 178.86 127.618 179.477C127.618 180 127.466 180.466 127.163 180.875C126.864 181.28 126.446 181.598 125.908 181.83C125.374 182.061 124.754 182.176 124.05 182.176C123.072 182.176 122.275 181.968 121.658 181.551C121.04 181.131 120.661 180.534 120.521 179.761L122.163 179.511C122.266 179.939 122.476 180.263 122.794 180.483C123.112 180.699 123.527 180.807 124.038 180.807C124.595 180.807 125.04 180.691 125.374 180.46C125.707 180.225 125.874 179.939 125.874 179.602C125.874 179.33 125.771 179.1 125.567 178.915C125.366 178.729 125.057 178.589 124.641 178.494L123.163 178.17C122.349 177.985 121.747 177.689 121.357 177.284C120.97 176.879 120.777 176.366 120.777 175.744C120.777 175.229 120.921 174.778 121.209 174.392C121.497 174.006 121.894 173.705 122.402 173.489C122.91 173.269 123.491 173.159 124.146 173.159C125.089 173.159 125.832 173.364 126.374 173.773C126.915 174.178 127.273 174.722 127.447 175.403ZM137.396 182.176C136.578 182.176 135.864 181.989 135.254 181.614C134.644 181.239 134.171 180.714 133.834 180.04C133.497 179.366 133.328 178.578 133.328 177.676C133.328 176.771 133.497 175.979 133.834 175.301C134.171 174.623 134.644 174.097 135.254 173.722C135.864 173.347 136.578 173.159 137.396 173.159C138.214 173.159 138.929 173.347 139.538 173.722C140.148 174.097 140.622 174.623 140.959 175.301C141.296 175.979 141.464 176.771 141.464 177.676C141.464 178.578 141.296 179.366 140.959 180.04C140.622 180.714 140.148 181.239 139.538 181.614C138.929 181.989 138.214 182.176 137.396 182.176ZM137.402 180.75C137.932 180.75 138.372 180.61 138.72 180.33C139.069 180.049 139.326 179.676 139.493 179.21C139.663 178.744 139.749 178.231 139.749 177.67C139.749 177.114 139.663 176.602 139.493 176.136C139.326 175.667 139.069 175.29 138.72 175.006C138.372 174.722 137.932 174.58 137.402 174.58C136.868 174.58 136.425 174.722 136.072 175.006C135.724 175.29 135.464 175.667 135.294 176.136C135.127 176.602 135.044 177.114 135.044 177.67C135.044 178.231 135.127 178.744 135.294 179.21C135.464 179.676 135.724 180.049 136.072 180.33C136.425 180.61 136.868 180.75 137.402 180.75ZM145.06 176.818V182H143.361V173.273H144.991V174.693H145.099C145.3 174.231 145.615 173.86 146.043 173.58C146.474 173.299 147.018 173.159 147.673 173.159C148.268 173.159 148.789 173.284 149.236 173.534C149.683 173.78 150.029 174.148 150.276 174.636C150.522 175.125 150.645 175.729 150.645 176.449V182H148.946V176.653C148.946 176.021 148.781 175.527 148.452 175.17C148.122 174.811 147.67 174.631 147.094 174.631C146.7 174.631 146.349 174.716 146.043 174.886C145.74 175.057 145.499 175.307 145.321 175.636C145.147 175.962 145.06 176.356 145.06 176.818ZM158.232 185.273C157.978 185.273 157.747 185.252 157.538 185.21C157.33 185.172 157.175 185.131 157.072 185.085L157.482 183.693C157.792 183.777 158.069 183.813 158.311 183.801C158.554 183.79 158.768 183.699 158.953 183.528C159.143 183.358 159.309 183.08 159.453 182.693L159.663 182.114L156.47 173.273H158.288L160.499 180.045H160.589L162.8 173.273H164.624L161.027 183.165C160.86 183.619 160.648 184.004 160.391 184.318C160.133 184.636 159.826 184.875 159.47 185.034C159.114 185.193 158.701 185.273 158.232 185.273ZM169.599 182.176C168.781 182.176 168.067 181.989 167.457 181.614C166.848 181.239 166.374 180.714 166.037 180.04C165.7 179.366 165.531 178.578 165.531 177.676C165.531 176.771 165.7 175.979 166.037 175.301C166.374 174.623 166.848 174.097 167.457 173.722C168.067 173.347 168.781 173.159 169.599 173.159C170.418 173.159 171.132 173.347 171.741 173.722C172.351 174.097 172.825 174.623 173.162 175.301C173.499 175.979 173.668 176.771 173.668 177.676C173.668 178.578 173.499 179.366 173.162 180.04C172.825 180.714 172.351 181.239 171.741 181.614C171.132 181.989 170.418 182.176 169.599 182.176ZM169.605 180.75C170.135 180.75 170.575 180.61 170.923 180.33C171.272 180.049 171.529 179.676 171.696 179.21C171.866 178.744 171.952 178.231 171.952 177.67C171.952 177.114 171.866 176.602 171.696 176.136C171.529 175.667 171.272 175.29 170.923 175.006C170.575 174.722 170.135 174.58 169.605 174.58C169.071 174.58 168.628 174.722 168.276 175.006C167.927 175.29 167.668 175.667 167.497 176.136C167.33 176.602 167.247 177.114 167.247 177.67C167.247 178.231 167.33 178.744 167.497 179.21C167.668 179.676 167.927 180.049 168.276 180.33C168.628 180.61 169.071 180.75 169.605 180.75ZM181.092 178.381V173.273H182.797V182H181.126V180.489H181.036C180.835 180.955 180.513 181.343 180.07 181.653C179.63 181.96 179.083 182.114 178.428 182.114C177.867 182.114 177.371 181.991 176.939 181.744C176.511 181.494 176.174 181.125 175.928 180.636C175.685 180.148 175.564 179.544 175.564 178.824V173.273H177.263V178.619C177.263 179.214 177.428 179.687 177.757 180.04C178.087 180.392 178.515 180.568 179.041 180.568C179.359 180.568 179.676 180.489 179.99 180.33C180.308 180.17 180.571 179.93 180.78 179.608C180.992 179.286 181.096 178.877 181.092 178.381ZM185.08 182V173.273H186.722V174.659H186.812C186.972 174.189 187.252 173.82 187.653 173.551C188.059 173.278 188.517 173.142 189.028 173.142C189.134 173.142 189.259 173.146 189.403 173.153C189.551 173.161 189.667 173.17 189.75 173.182V174.807C189.682 174.788 189.561 174.767 189.386 174.744C189.212 174.718 189.038 174.705 188.864 174.705C188.462 174.705 188.104 174.79 187.79 174.96C187.479 175.127 187.233 175.36 187.051 175.659C186.869 175.955 186.778 176.292 186.778 176.67V182H185.08ZM195.455 182V173.273H197.085V174.693H197.193C197.375 174.212 197.672 173.837 198.085 173.568C198.498 173.295 198.992 173.159 199.568 173.159C200.152 173.159 200.64 173.295 201.034 173.568C201.432 173.841 201.725 174.216 201.915 174.693H202.006C202.214 174.227 202.545 173.856 203 173.58C203.455 173.299 203.996 173.159 204.625 173.159C205.417 173.159 206.062 173.407 206.562 173.903C207.066 174.4 207.318 175.148 207.318 176.148V182H205.619V176.307C205.619 175.716 205.458 175.288 205.136 175.023C204.814 174.758 204.43 174.625 203.983 174.625C203.43 174.625 203 174.795 202.693 175.136C202.386 175.473 202.233 175.907 202.233 176.438V182H200.54V176.199C200.54 175.725 200.392 175.345 200.097 175.057C199.801 174.769 199.417 174.625 198.943 174.625C198.621 174.625 198.324 174.71 198.051 174.881C197.782 175.047 197.564 175.28 197.398 175.58C197.235 175.879 197.153 176.225 197.153 176.619V182H195.455ZM209.595 182V173.273H211.294V182H209.595ZM210.453 171.926C210.158 171.926 209.904 171.828 209.692 171.631C209.483 171.43 209.379 171.191 209.379 170.915C209.379 170.634 209.483 170.396 209.692 170.199C209.904 169.998 210.158 169.898 210.453 169.898C210.749 169.898 211 169.998 211.209 170.199C211.421 170.396 211.527 170.634 211.527 170.915C211.527 171.191 211.421 171.43 211.209 171.631C211 171.828 210.749 171.926 210.453 171.926ZM215.278 176.818V182H213.58V173.273H215.21V174.693H215.318C215.519 174.231 215.833 173.86 216.261 173.58C216.693 173.299 217.237 173.159 217.892 173.159C218.487 173.159 219.008 173.284 219.455 173.534C219.902 173.78 220.248 174.148 220.494 174.636C220.741 175.125 220.864 175.729 220.864 176.449V182H219.165V176.653C219.165 176.021 219 175.527 218.67 175.17C218.341 174.811 217.888 174.631 217.312 174.631C216.919 174.631 216.568 174.716 216.261 174.886C215.958 175.057 215.718 175.307 215.54 175.636C215.366 175.962 215.278 176.356 215.278 176.818ZM226.409 182.17C225.705 182.17 225.076 181.991 224.523 181.631C223.973 181.267 223.542 180.75 223.227 180.08C222.917 179.405 222.761 178.597 222.761 177.653C222.761 176.71 222.919 175.903 223.233 175.233C223.551 174.562 223.987 174.049 224.54 173.693C225.093 173.337 225.72 173.159 226.42 173.159C226.962 173.159 227.398 173.25 227.727 173.432C228.061 173.61 228.318 173.818 228.5 174.057C228.686 174.295 228.83 174.506 228.932 174.688H229.034V170.364H230.733V182H229.074V180.642H228.932C228.83 180.828 228.682 181.04 228.489 181.278C228.299 181.517 228.038 181.725 227.705 181.903C227.371 182.081 226.939 182.17 226.409 182.17ZM226.784 180.722C227.273 180.722 227.686 180.593 228.023 180.335C228.364 180.074 228.621 179.712 228.795 179.25C228.973 178.788 229.062 178.25 229.062 177.636C229.062 177.03 228.975 176.5 228.801 176.045C228.627 175.591 228.371 175.237 228.034 174.983C227.697 174.729 227.28 174.602 226.784 174.602C226.273 174.602 225.847 174.735 225.506 175C225.165 175.265 224.907 175.627 224.733 176.085C224.563 176.544 224.477 177.061 224.477 177.636C224.477 178.22 224.564 178.744 224.739 179.21C224.913 179.676 225.17 180.045 225.511 180.318C225.856 180.587 226.28 180.722 226.784 180.722ZM235.016 178.653V178.545C235.023 177.841 235.093 177.28 235.226 176.864C235.362 176.447 235.555 176.11 235.805 175.852C236.055 175.595 236.357 175.36 236.709 175.148C236.936 175.004 237.141 174.843 237.322 174.665C237.504 174.487 237.648 174.282 237.754 174.051C237.86 173.82 237.913 173.564 237.913 173.284C237.913 172.947 237.834 172.655 237.675 172.409C237.516 172.163 237.304 171.973 237.038 171.841C236.777 171.705 236.485 171.636 236.163 171.636C235.872 171.636 235.593 171.697 235.328 171.818C235.063 171.939 234.843 172.129 234.669 172.386C234.495 172.64 234.394 172.968 234.368 173.369H232.641C232.667 172.688 232.839 172.112 233.158 171.642C233.476 171.169 233.896 170.811 234.419 170.568C234.946 170.326 235.527 170.205 236.163 170.205C236.86 170.205 237.47 170.335 237.993 170.597C238.516 170.854 238.921 171.216 239.209 171.682C239.5 172.144 239.646 172.684 239.646 173.301C239.646 173.725 239.58 174.108 239.447 174.449C239.315 174.786 239.125 175.087 238.879 175.352C238.637 175.617 238.345 175.852 238.004 176.057C237.682 176.258 237.421 176.466 237.22 176.682C237.023 176.898 236.879 177.153 236.788 177.449C236.697 177.744 236.648 178.11 236.641 178.545V178.653H235.016ZM235.874 182.108C235.563 182.108 235.296 181.998 235.072 181.778C234.849 181.555 234.737 181.286 234.737 180.972C234.737 180.661 234.849 180.396 235.072 180.176C235.296 179.953 235.563 179.841 235.874 179.841C236.18 179.841 236.446 179.953 236.669 180.176C236.896 180.396 237.01 180.661 237.01 180.972C237.01 181.18 236.957 181.371 236.851 181.545C236.749 181.716 236.612 181.852 236.442 181.955C236.271 182.057 236.082 182.108 235.874 182.108Z" fill="#9A9797"/>
<rect x="326.5" y="221.5" width="68" height="63" rx="15.5" fill="#FFFEF7"/>
<rect x="326.5" y="221.5" width="68" height="63" rx="15.5" stroke="black"/>
<mask id="mask0_254_86" style="mask-type:alpha" maskUnits="userSpaceOnUse" x="349" y="241" width="24" height="24">
<rect x="349" y="241" width="24" height="24" fill="#D9D9D9"/>
</mask>
<g mask="url(#mask0_254_86)">
<path d="M353 261C352.45 261 351.979 260.804 351.588 260.413C351.196 260.021 351 259.55 351 259V247C351 246.45 351.196 245.979 351.588 245.588C351.979 245.196 352.45 245 353 245H369C369.55 245 370.021 245.196 370.413 245.588C370.804 245.979 371 246.45 371 247V259C371 259.55 370.804 260.021 370.413 260.413C370.021 260.804 369.55 261 369 261H353ZM361 254L353 249V259H369V249L361 254ZM361 252L369 247H353L361 252ZM353 249V247V259V249Z" fill="#1C1B1F"/>
</g>
<rect x="321.5" y="32.5" width="147" height="168" rx="15.5" fill="#FFFEF7"/>
<rect x="321.5" y="32.5" width="147" height="168" rx="15.5" stroke="black"/>
<path d="M334.5 72L339.62 58H342.3L347.42 72H344.88L340.94 60.8L337 72H334.5ZM336.78 68.7L337.42 66.8H344.32L344.96 68.7H336.78ZM352.81 72.24C351.997 72.24 351.297 72.08 350.71 71.76C350.137 71.4267 349.697 70.9333 349.39 70.28C349.084 69.6133 348.93 68.7933 348.93 67.82V61.92H351.33V67.58C351.33 68.4467 351.51 69.1067 351.87 69.56C352.244 70 352.804 70.22 353.55 70.22C354.03 70.22 354.457 70.1067 354.83 69.88C355.217 69.6533 355.517 69.3267 355.73 68.9C355.957 68.46 356.07 67.9267 356.07 67.3V61.92H358.47V72H356.35L356.17 70.32C355.864 70.9067 355.417 71.3733 354.83 71.72C354.257 72.0667 353.584 72.24 352.81 72.24ZM365.521 72C364.841 72 364.247 71.8933 363.741 71.68C363.247 71.4667 362.861 71.1133 362.581 70.62C362.301 70.1267 362.161 69.46 362.161 68.62V63.94H360.441V61.92H362.161L362.441 59.26H364.561V61.92H367.301V63.94H364.561V68.62C364.561 69.1267 364.667 69.48 364.881 69.68C365.107 69.8667 365.481 69.96 366.001 69.96H367.241V72H365.521ZM374.005 72.24C373.045 72.24 372.178 72.02 371.405 71.58C370.645 71.1267 370.045 70.5067 369.605 69.72C369.178 68.92 368.965 68.0067 368.965 66.98C368.965 65.9267 369.185 65.0067 369.625 64.22C370.065 63.42 370.665 62.8 371.425 62.36C372.198 61.9067 373.065 61.68 374.025 61.68C374.985 61.68 375.845 61.9067 376.605 62.36C377.378 62.8 377.978 63.4133 378.405 64.2C378.845 64.9867 379.065 65.9067 379.065 66.96C379.065 68.0133 378.845 68.9333 378.405 69.72C377.965 70.5067 377.358 71.1267 376.585 71.58C375.825 72.02 374.965 72.24 374.005 72.24ZM374.005 70.18C374.485 70.18 374.918 70.06 375.305 69.82C375.705 69.58 376.025 69.22 376.265 68.74C376.505 68.26 376.625 67.6667 376.625 66.96C376.625 66.2533 376.505 65.6667 376.265 65.2C376.038 64.72 375.725 64.36 375.325 64.12C374.938 63.88 374.505 63.76 374.025 63.76C373.558 63.76 373.125 63.88 372.725 64.12C372.325 64.36 372.005 64.72 371.765 65.2C371.525 65.6667 371.405 66.2533 371.405 66.96C371.405 67.6667 371.525 68.26 371.765 68.74C372.005 69.22 372.318 69.58 372.705 69.82C373.105 70.06 373.538 70.18 374.005 70.18ZM381.414 72V61.92H383.534L383.734 63.3C384.054 62.7933 384.474 62.4 384.994 62.12C385.528 61.8267 386.134 61.68 386.814 61.68C387.321 61.68 387.774 61.7467 388.174 61.88C388.588 62.0133 388.948 62.2133 389.254 62.48C389.574 62.7467 389.834 63.08 390.034 63.48C390.408 62.92 390.894 62.48 391.494 62.16C392.094 61.84 392.748 61.68 393.454 61.68C394.294 61.68 395.008 61.8533 395.594 62.2C396.181 62.5333 396.628 63.0333 396.934 63.7C397.241 64.3533 397.394 65.16 397.394 66.12V72H395.014V66.36C395.014 65.5067 394.841 64.8533 394.494 64.4C394.148 63.9467 393.634 63.72 392.954 63.72C392.488 63.72 392.074 63.8333 391.714 64.06C391.368 64.2867 391.094 64.62 390.894 65.06C390.694 65.4867 390.594 66.0133 390.594 66.64V72H388.214V66.36C388.214 65.5067 388.041 64.8533 387.694 64.4C387.348 63.9467 386.828 63.72 386.134 63.72C385.694 63.72 385.294 63.8333 384.934 64.06C384.588 64.2867 384.314 64.62 384.114 65.06C383.914 65.4867 383.814 66.0133 383.814 66.64V72H381.414ZM403.29 72.24C402.463 72.24 401.777 72.1 401.23 71.82C400.683 71.54 400.277 71.1667 400.01 70.7C399.743 70.2333 399.61 69.7267 399.61 69.18C399.61 68.54 399.77 67.9867 400.09 67.52C400.423 67.0533 400.91 66.6933 401.55 66.44C402.19 66.1733 402.977 66.04 403.91 66.04H406.45C406.45 65.5067 406.377 65.0667 406.23 64.72C406.083 64.36 405.857 64.0933 405.55 63.92C405.243 63.7467 404.85 63.66 404.37 63.66C403.823 63.66 403.357 63.7867 402.97 64.04C402.583 64.28 402.343 64.6533 402.25 65.16H399.89C399.97 64.44 400.21 63.8267 400.61 63.32C401.01 62.8 401.537 62.4 402.19 62.12C402.857 61.8267 403.583 61.68 404.37 61.68C405.317 61.68 406.123 61.8467 406.79 62.18C407.457 62.5 407.963 62.9667 408.31 63.58C408.67 64.18 408.85 64.9067 408.85 65.76V72H406.81L406.57 70.38C406.437 70.6467 406.263 70.8933 406.05 71.12C405.85 71.3467 405.617 71.5467 405.35 71.72C405.083 71.88 404.777 72.0067 404.43 72.1C404.097 72.1933 403.717 72.24 403.29 72.24ZM403.83 70.34C404.217 70.34 404.557 70.2733 404.85 70.14C405.157 69.9933 405.417 69.7933 405.63 69.54C405.857 69.2733 406.03 68.98 406.15 68.66C406.27 68.34 406.35 68 406.39 67.64V67.6H404.17C403.703 67.6 403.317 67.66 403.01 67.78C402.703 67.8867 402.483 68.0467 402.35 68.26C402.217 68.4733 402.15 68.72 402.15 69C402.15 69.28 402.217 69.52 402.35 69.72C402.483 69.92 402.677 70.0733 402.93 70.18C403.183 70.2867 403.483 70.34 403.83 70.34ZM415.638 72C414.958 72 414.365 71.8933 413.858 71.68C413.365 71.4667 412.978 71.1133 412.698 70.62C412.418 70.1267 412.278 69.46 412.278 68.62V63.94H410.558V61.92H412.278L412.558 59.26H414.678V61.92H417.418V63.94H414.678V68.62C414.678 69.1267 414.785 69.48 414.998 69.68C415.225 69.8667 415.598 69.96 416.118 69.96H417.358V72H415.638ZM424.142 72.24C423.142 72.24 422.262 72.0267 421.502 71.6C420.742 71.16 420.149 70.5467 419.722 69.76C419.295 68.9733 419.082 68.0667 419.082 67.04C419.082 65.9733 419.289 65.04 419.702 64.24C420.129 63.44 420.722 62.8133 421.482 62.36C422.255 61.9067 423.149 61.68 424.162 61.68C425.149 61.68 426.009 61.9 426.742 62.34C427.475 62.78 428.042 63.3733 428.442 64.12C428.842 64.8533 429.042 65.68 429.042 66.6C429.042 66.7333 429.042 66.88 429.042 67.04C429.042 67.2 429.029 67.3667 429.002 67.54H420.802V66H426.622C426.595 65.2667 426.349 64.6933 425.882 64.28C425.415 63.8533 424.835 63.64 424.142 63.64C423.649 63.64 423.195 63.7533 422.782 63.98C422.369 64.2067 422.042 64.5467 421.802 65C421.562 65.44 421.442 66 421.442 66.68V67.26C421.442 67.8867 421.555 68.4267 421.782 68.88C422.022 69.3333 422.342 69.68 422.742 69.92C423.155 70.1467 423.615 70.26 424.122 70.26C424.682 70.26 425.142 70.14 425.502 69.9C425.875 69.66 426.149 69.34 426.322 68.94H428.762C428.575 69.5667 428.269 70.1333 427.842 70.64C427.415 71.1333 426.889 71.5267 426.262 71.82C425.635 72.1 424.929 72.24 424.142 72.24ZM336.56 102.4L339.02 96.88H338.42L334.4 87.92H337.02L340.02 94.76L342.86 87.92H345.4L339.1 102.4H336.56ZM350.958 98.24C349.998 98.24 349.131 98.02 348.358 97.58C347.598 97.1267 346.998 96.5067 346.558 95.72C346.131 94.92 345.918 94.0067 345.918 92.98C345.918 91.9267 346.138 91.0067 346.578 90.22C347.018 89.42 347.618 88.8 348.378 88.36C349.151 87.9067 350.018 87.68 350.978 87.68C351.938 87.68 352.798 87.9067 353.558 88.36C354.331 88.8 354.931 89.4133 355.358 90.2C355.798 90.9867 356.018 91.9067 356.018 92.96C356.018 94.0133 355.798 94.9333 355.358 95.72C354.918 96.5067 354.311 97.1267 353.538 97.58C352.778 98.02 351.918 98.24 350.958 98.24ZM350.958 96.18C351.438 96.18 351.871 96.06 352.258 95.82C352.658 95.58 352.978 95.22 353.218 94.74C353.458 94.26 353.578 93.6667 353.578 92.96C353.578 92.2533 353.458 91.6667 353.218 91.2C352.991 90.72 352.678 90.36 352.278 90.12C351.891 89.88 351.458 89.76 350.978 89.76C350.511 89.76 350.078 89.88 349.678 90.12C349.278 90.36 348.958 90.72 348.718 91.2C348.478 91.6667 348.358 92.2533 348.358 92.96C348.358 93.6667 348.478 94.26 348.718 94.74C348.958 95.22 349.271 95.58 349.658 95.82C350.058 96.06 350.491 96.18 350.958 96.18ZM362.107 98.24C361.294 98.24 360.594 98.08 360.007 97.76C359.434 97.4267 358.994 96.9333 358.687 96.28C358.381 95.6133 358.227 94.7933 358.227 93.82V87.92H360.627V93.58C360.627 94.4467 360.807 95.1067 361.167 95.56C361.541 96 362.101 96.22 362.847 96.22C363.327 96.22 363.754 96.1067 364.127 95.88C364.514 95.6533 364.814 95.3267 365.027 94.9C365.254 94.46 365.367 93.9267 365.367 93.3V87.92H367.767V98H365.647L365.467 96.32C365.161 96.9067 364.714 97.3733 364.127 97.72C363.554 98.0667 362.881 98.24 362.107 98.24ZM370.438 98V87.92H372.578L372.798 89.8C373.038 89.36 373.338 88.9867 373.698 88.68C374.058 88.36 374.478 88.1133 374.958 87.94C375.451 87.7667 375.991 87.68 376.578 87.68V90.22H375.738C375.338 90.22 374.958 90.2733 374.598 90.38C374.238 90.4733 373.924 90.6333 373.658 90.86C373.404 91.0733 373.204 91.3733 373.058 91.76C372.911 92.1333 372.838 92.6067 372.838 93.18V98H370.438ZM337.34 124L334.38 113.92H336.76L338.82 122.2L338.38 122.18L340.68 113.92H343.36L345.68 122.18H345.24L347.3 113.92H349.68L346.72 124H344.24L341.78 115.46H342.28L339.82 124H337.34ZM355.743 124.24C354.783 124.24 353.916 124.02 353.143 123.58C352.383 123.127 351.783 122.507 351.343 121.72C350.916 120.92 350.703 120.007 350.703 118.98C350.703 117.927 350.923 117.007 351.363 116.22C351.803 115.42 352.403 114.8 353.163 114.36C353.936 113.907 354.803 113.68 355.763 113.68C356.723 113.68 357.583 113.907 358.343 114.36C359.116 114.8 359.716 115.413 360.143 116.2C360.583 116.987 360.803 117.907 360.803 118.96C360.803 120.013 360.583 120.933 360.143 121.72C359.703 122.507 359.096 123.127 358.323 123.58C357.563 124.02 356.703 124.24 355.743 124.24ZM355.743 122.18C356.223 122.18 356.656 122.06 357.043 121.82C357.443 121.58 357.763 121.22 358.003 120.74C358.243 120.26 358.363 119.667 358.363 118.96C358.363 118.253 358.243 117.667 358.003 117.2C357.776 116.72 357.463 116.36 357.063 116.12C356.676 115.88 356.243 115.76 355.763 115.76C355.296 115.76 354.863 115.88 354.463 116.12C354.063 116.36 353.743 116.72 353.503 117.2C353.263 117.667 353.143 118.253 353.143 118.96C353.143 119.667 353.263 120.26 353.503 120.74C353.743 121.22 354.056 121.58 354.443 121.82C354.843 122.06 355.276 122.18 355.743 122.18ZM363.153 124V113.92H365.293L365.513 115.8C365.753 115.36 366.053 114.987 366.413 114.68C366.773 114.36 367.193 114.113 367.673 113.94C368.166 113.767 368.706 113.68 369.293 113.68V116.22H368.453C368.053 116.22 367.673 116.273 367.313 116.38C366.953 116.473 366.639 116.633 366.373 116.86C366.119 117.073 365.919 117.373 365.773 117.76C365.626 118.133 365.553 118.607 365.553 119.18V124H363.153ZM377.602 124L373.142 118.48L377.142 113.92H380.002L375.022 119.46V117.6L380.602 124H377.602ZM371.102 124V109.6H373.502V124H371.102ZM382.715 124V112.82C382.715 112.047 382.842 111.427 383.095 110.96C383.362 110.48 383.742 110.133 384.235 109.92C384.728 109.707 385.315 109.6 385.995 109.6H387.195V111.64H386.355C385.915 111.64 385.595 111.733 385.395 111.92C385.208 112.093 385.115 112.4 385.115 112.84V124H382.715ZM381.275 115.94V113.92H387.395V115.94H381.275ZM389.455 124V109.6H391.855V124H389.455ZM399.239 124.24C398.279 124.24 397.413 124.02 396.639 123.58C395.879 123.127 395.279 122.507 394.839 121.72C394.413 120.92 394.199 120.007 394.199 118.98C394.199 117.927 394.419 117.007 394.859 116.22C395.299 115.42 395.899 114.8 396.659 114.36C397.433 113.907 398.299 113.68 399.259 113.68C400.219 113.68 401.079 113.907 401.839 114.36C402.613 114.8 403.213 115.413 403.639 116.2C404.079 116.987 404.299 117.907 404.299 118.96C404.299 120.013 404.079 120.933 403.639 121.72C403.199 122.507 402.593 123.127 401.819 123.58C401.059 124.02 400.199 124.24 399.239 124.24ZM399.239 122.18C399.719 122.18 400.153 122.06 400.539 121.82C400.939 121.58 401.259 121.22 401.499 120.74C401.739 120.26 401.859 119.667 401.859 118.96C401.859 118.253 401.739 117.667 401.499 117.2C401.273 116.72 400.959 116.36 400.559 116.12C400.173 115.88 399.739 115.76 399.259 115.76C398.793 115.76 398.359 115.88 397.959 116.12C397.559 116.36 397.239 116.72 396.999 117.2C396.759 117.667 396.639 118.253 396.639 118.96C396.639 119.667 396.759 120.26 396.999 120.74C397.239 121.22 397.553 121.58 397.939 121.82C398.339 122.06 398.773 122.18 399.239 122.18ZM408.297 124L405.337 113.92H407.717L409.777 122.2L409.337 122.18L411.637 113.92H414.317L416.637 122.18H416.197L418.257 113.92H420.637L417.677 124H415.197L412.737 115.46H413.237L410.777 124H408.297ZM337.34 150L334.38 139.92H336.76L338.82 148.2L338.38 148.18L340.68 139.92H343.36L345.68 148.18H345.24L347.3 139.92H349.68L346.72 150H344.24L341.78 141.46H342.28L339.82 150H337.34ZM351.495 150V139.92H353.895V150H351.495ZM352.695 138.32C352.255 138.32 351.888 138.187 351.595 137.92C351.315 137.64 351.175 137.3 351.175 136.9C351.175 136.487 351.315 136.153 351.595 135.9C351.888 135.633 352.255 135.5 352.695 135.5C353.135 135.5 353.495 135.633 353.775 135.9C354.068 136.153 354.215 136.487 354.215 136.9C354.215 137.3 354.068 137.64 353.775 137.92C353.495 138.187 353.135 138.32 352.695 138.32ZM361.048 150C360.368 150 359.775 149.893 359.268 149.68C358.775 149.467 358.388 149.113 358.108 148.62C357.828 148.127 357.688 147.46 357.688 146.62V141.94H355.968V139.92H357.688L357.968 137.26H360.088V139.92H362.828V141.94H360.088V146.62C360.088 147.127 360.195 147.48 360.408 147.68C360.635 147.867 361.008 147.96 361.528 147.96H362.768V150H361.048ZM365.086 150V135.6H367.486V141.48C367.819 140.933 368.273 140.5 368.846 140.18C369.419 139.847 370.066 139.68 370.786 139.68C371.613 139.68 372.313 139.853 372.886 140.2C373.459 140.533 373.893 141.033 374.186 141.7C374.493 142.353 374.646 143.173 374.646 144.16V150H372.266V144.38C372.266 143.513 372.079 142.853 371.706 142.4C371.346 141.947 370.793 141.72 370.046 141.72C369.566 141.72 369.133 141.84 368.746 142.08C368.359 142.307 368.053 142.64 367.826 143.08C367.599 143.507 367.486 144.033 367.486 144.66V150H365.086ZM381.238 150L386.358 136H389.038L394.158 150H391.618L387.678 138.8L383.738 150H381.238ZM383.518 146.7L384.158 144.8H391.058L391.698 146.7H383.518ZM396.084 150V136H398.484V150H396.084Z" fill="black"/>
<rect x="404.5" y="221.5" width="68" height="63" rx="15.5" fill="#FFFEF7"/>
<rect x="404.5" y="221.5" width="68" height="63" rx="15.5" stroke="black"/>
<mask id="mask1_254_86" style="mask-type:alpha" maskUnits="userSpaceOnUse" x="427" y="241" width="24" height="24">
<rect x="427" y="241" width="24" height="24" fill="#D9D9D9"/>
</mask>
<g mask="url(#mask1_254_86)">
<path d="M435 254H443V252H435V254ZM435 257H443V255H435V257ZM435 260H440V258H435V260ZM433 263C432.45 263 431.979 262.804 431.588 262.413C431.196 262.021 431 261.55 431 261V245C431 244.45 431.196 243.979 431.588 243.588C431.979 243.196 432.45 243 433 243H441L447 249V261C447 261.55 446.804 262.021 446.413 262.413C446.021 262.804 445.55 263 445 263H433ZM440 250V245H433V261H445V250H440Z" fill="#1C1B1F"/>
</g>
<path d="M21.5 363C21.5 345.603 35.603 331.5 53 331.5H447C464.397 331.5 478.5 345.603 478.5 363V468.5H21.5V363Z" fill="#FFFEF7"/>
<path d="M21.5 363C21.5 345.603 35.603 331.5 53 331.5H447C464.397 331.5 478.5 345.603 478.5 363V468.5H21.5V363Z" stroke="black"/>
<path d="M21.5 444C21.5 426.603 35.603 412.5 53 412.5H447C464.397 412.5 478.5 426.603 478.5 444V468.5H21.5V444Z" fill="#FFFEF7"/>
<path d="M21.5 444C21.5 426.603 35.603 412.5 53 412.5H447C464.397 412.5 478.5 426.603 478.5 444V468.5H21.5V444Z" stroke="#9A9797"/>
<path d="M421.5 440.5C421.5 429.454 430.454 420.5 441.5 420.5H444.5C457.203 420.5 467.5 430.797 467.5 443.5V460.5H441.5C430.454 460.5 421.5 451.546 421.5 440.5Z" stroke="#9A9797"/>
<path d="M444.898 442.298C444.234 442.298 443.67 442.088 443.205 441.669C442.741 441.249 442.508 440.74 442.508 440.14V435.825C442.508 435.225 442.741 434.716 443.205 434.296C443.67 433.876 444.234 433.667 444.898 433.667C445.562 433.667 446.126 433.876 446.591 434.296C447.056 434.716 447.288 435.225 447.288 435.825V440.14C447.288 440.74 447.056 441.249 446.591 441.669C446.126 442.088 445.562 442.298 444.898 442.298ZM444.102 447.333V445.121C442.721 444.954 441.579 444.396 440.676 443.449C439.773 442.502 439.322 441.399 439.322 440.14H440.915C440.915 441.135 441.304 441.984 442.08 442.685C442.857 443.386 443.796 443.737 444.898 443.737C446 443.737 446.94 443.386 447.716 442.685C448.493 441.984 448.881 441.135 448.881 440.14H450.475C450.475 441.399 450.023 442.502 449.12 443.449C448.218 444.396 447.076 444.954 445.695 445.121V447.333H444.102ZM444.898 440.86C445.124 440.86 445.313 440.791 445.466 440.653C445.619 440.515 445.695 440.344 445.695 440.14V435.825C445.695 435.621 445.619 435.45 445.466 435.312C445.313 435.174 445.124 435.105 444.898 435.105C444.673 435.105 444.483 435.174 444.331 435.312C444.178 435.45 444.102 435.621 444.102 435.825V440.14C444.102 440.344 444.178 440.515 444.331 440.653C444.483 440.791 444.673 440.86 444.898 440.86Z" fill="#9A9797"/>
<path d="M45.2784 447V435.364H47.0341V440.42H52.8352V435.364H54.5966V447H52.8352V441.926H47.0341V447H45.2784ZM59.5568 447.193C59.0038 447.193 58.5038 447.091 58.0568 446.886C57.6098 446.678 57.2557 446.377 56.9943 445.983C56.7367 445.589 56.608 445.106 56.608 444.534C56.608 444.042 56.7027 443.636 56.892 443.318C57.0814 443 57.3371 442.748 57.6591 442.562C57.9811 442.377 58.3409 442.237 58.7386 442.142C59.1364 442.047 59.5417 441.975 59.9545 441.926C60.4773 441.866 60.9015 441.816 61.2273 441.778C61.553 441.737 61.7898 441.67 61.9375 441.58C62.0852 441.489 62.1591 441.341 62.1591 441.136V441.097C62.1591 440.6 62.0189 440.216 61.7386 439.943C61.4621 439.67 61.0492 439.534 60.5 439.534C59.928 439.534 59.4773 439.661 59.1477 439.915C58.822 440.165 58.5966 440.443 58.4716 440.75L56.875 440.386C57.0644 439.856 57.3409 439.428 57.7045 439.102C58.072 438.773 58.4943 438.534 58.9716 438.386C59.4489 438.235 59.9508 438.159 60.4773 438.159C60.8258 438.159 61.1951 438.201 61.5852 438.284C61.9792 438.364 62.3466 438.511 62.6875 438.727C63.0322 438.943 63.3144 439.252 63.5341 439.653C63.7538 440.051 63.8636 440.568 63.8636 441.205V447H62.2045V445.807H62.1364C62.0265 446.027 61.8617 446.242 61.642 446.455C61.4223 446.667 61.1402 446.843 60.7955 446.983C60.4508 447.123 60.0379 447.193 59.5568 447.193ZM59.9261 445.83C60.3958 445.83 60.7973 445.737 61.1307 445.551C61.4678 445.366 61.7235 445.123 61.8977 444.824C62.0758 444.521 62.1648 444.197 62.1648 443.852V442.727C62.1042 442.788 61.9867 442.845 61.8125 442.898C61.642 442.947 61.447 442.991 61.2273 443.028C61.0076 443.062 60.7936 443.095 60.5852 443.125C60.3769 443.152 60.2027 443.174 60.0625 443.193C59.733 443.235 59.4318 443.305 59.1591 443.403C58.8902 443.502 58.6742 443.644 58.5114 443.83C58.3523 444.011 58.2727 444.254 58.2727 444.557C58.2727 444.977 58.428 445.295 58.7386 445.511C59.0492 445.723 59.4451 445.83 59.9261 445.83ZM73.2798 438.273L70.1151 447H68.2969L65.1264 438.273H66.9503L69.1605 444.989H69.2514L71.456 438.273H73.2798ZM74.8764 447V438.273H76.5753V447H74.8764ZM75.7344 436.926C75.4389 436.926 75.1851 436.828 74.973 436.631C74.7647 436.43 74.6605 436.191 74.6605 435.915C74.6605 435.634 74.7647 435.396 74.973 435.199C75.1851 434.998 75.4389 434.898 75.7344 434.898C76.0298 434.898 76.2817 434.998 76.4901 435.199C76.7022 435.396 76.8082 435.634 76.8082 435.915C76.8082 436.191 76.7022 436.43 76.4901 436.631C76.2817 436.828 76.0298 436.926 75.7344 436.926ZM80.5597 441.818V447H78.8608V438.273H80.4915V439.693H80.5994C80.8002 439.231 81.1146 438.86 81.5426 438.58C81.9744 438.299 82.518 438.159 83.1733 438.159C83.768 438.159 84.2888 438.284 84.7358 438.534C85.1828 438.78 85.5294 439.148 85.7756 439.636C86.0218 440.125 86.1449 440.729 86.1449 441.449V447H84.446V441.653C84.446 441.021 84.2813 440.527 83.9517 440.17C83.6222 439.811 83.1695 439.631 82.5938 439.631C82.1998 439.631 81.8494 439.716 81.5426 439.886C81.2396 440.057 80.9991 440.307 80.821 440.636C80.6468 440.962 80.5597 441.356 80.5597 441.818ZM92.0824 450.455C91.3892 450.455 90.7926 450.364 90.2926 450.182C89.7964 450 89.3911 449.759 89.0767 449.46C88.7623 449.161 88.5275 448.833 88.3722 448.477L89.8324 447.875C89.9347 448.042 90.071 448.218 90.2415 448.403C90.4157 448.593 90.6506 448.754 90.946 448.886C91.2453 449.019 91.6297 449.085 92.0994 449.085C92.7434 449.085 93.2756 448.928 93.696 448.614C94.1165 448.303 94.3267 447.807 94.3267 447.125V445.409H94.2188C94.1165 445.595 93.9688 445.801 93.7756 446.028C93.5862 446.256 93.3248 446.453 92.9915 446.619C92.6581 446.786 92.2244 446.869 91.6903 446.869C91.0009 446.869 90.3797 446.708 89.8267 446.386C89.2775 446.061 88.8419 445.581 88.5199 444.949C88.2017 444.312 88.0426 443.53 88.0426 442.602C88.0426 441.674 88.1998 440.879 88.5142 440.216C88.8324 439.553 89.268 439.045 89.821 438.693C90.3741 438.337 91.0009 438.159 91.7017 438.159C92.2434 438.159 92.6809 438.25 93.0142 438.432C93.3475 438.61 93.607 438.818 93.7926 439.057C93.982 439.295 94.1278 439.506 94.2301 439.688H94.3551V438.273H96.0199V447.193C96.0199 447.943 95.8456 448.559 95.4972 449.04C95.1487 449.521 94.6771 449.877 94.0824 450.108C93.4915 450.339 92.8248 450.455 92.0824 450.455ZM92.0653 445.46C92.554 445.46 92.9669 445.347 93.304 445.119C93.6449 444.888 93.9025 444.559 94.0767 444.131C94.2547 443.699 94.3438 443.182 94.3438 442.58C94.3438 441.992 94.2566 441.475 94.0824 441.028C93.9081 440.581 93.6525 440.233 93.3153 439.983C92.9782 439.729 92.5616 439.602 92.0653 439.602C91.554 439.602 91.1278 439.735 90.7869 440C90.446 440.261 90.1884 440.617 90.0142 441.068C89.8438 441.519 89.7585 442.023 89.7585 442.58C89.7585 443.152 89.8456 443.653 90.0199 444.085C90.1941 444.517 90.4517 444.854 90.7926 445.097C91.1373 445.339 91.5616 445.46 92.0653 445.46ZM105.072 447.193C104.519 447.193 104.019 447.091 103.572 446.886C103.125 446.678 102.771 446.377 102.51 445.983C102.252 445.589 102.124 445.106 102.124 444.534C102.124 444.042 102.218 443.636 102.408 443.318C102.597 443 102.853 442.748 103.175 442.562C103.497 442.377 103.857 442.237 104.254 442.142C104.652 442.047 105.057 441.975 105.47 441.926C105.993 441.866 106.417 441.816 106.743 441.778C107.069 441.737 107.305 441.67 107.453 441.58C107.601 441.489 107.675 441.341 107.675 441.136V441.097C107.675 440.6 107.535 440.216 107.254 439.943C106.978 439.67 106.565 439.534 106.016 439.534C105.444 439.534 104.993 439.661 104.663 439.915C104.338 440.165 104.112 440.443 103.987 440.75L102.391 440.386C102.58 439.856 102.857 439.428 103.22 439.102C103.588 438.773 104.01 438.534 104.487 438.386C104.964 438.235 105.466 438.159 105.993 438.159C106.341 438.159 106.711 438.201 107.101 438.284C107.495 438.364 107.862 438.511 108.203 438.727C108.548 438.943 108.83 439.252 109.05 439.653C109.269 440.051 109.379 440.568 109.379 441.205V447H107.72V445.807H107.652C107.542 446.027 107.377 446.242 107.158 446.455C106.938 446.667 106.656 446.843 106.311 446.983C105.966 447.123 105.554 447.193 105.072 447.193ZM105.442 445.83C105.911 445.83 106.313 445.737 106.646 445.551C106.983 445.366 107.239 445.123 107.413 444.824C107.591 444.521 107.68 444.197 107.68 443.852V442.727C107.62 442.788 107.502 442.845 107.328 442.898C107.158 442.947 106.963 442.991 106.743 443.028C106.523 443.062 106.309 443.095 106.101 443.125C105.893 443.152 105.718 443.174 105.578 443.193C105.249 443.235 104.947 443.305 104.675 443.403C104.406 443.502 104.19 443.644 104.027 443.83C103.868 444.011 103.788 444.254 103.788 444.557C103.788 444.977 103.944 445.295 104.254 445.511C104.565 445.723 104.961 445.83 105.442 445.83ZM121.768 450.273V445.642H121.666C121.564 445.828 121.416 446.04 121.223 446.278C121.034 446.517 120.772 446.725 120.439 446.903C120.106 447.081 119.674 447.17 119.143 447.17C118.439 447.17 117.81 446.991 117.257 446.631C116.708 446.267 116.276 445.75 115.962 445.08C115.651 444.405 115.496 443.597 115.496 442.653C115.496 441.71 115.653 440.903 115.967 440.233C116.286 439.562 116.721 439.049 117.274 438.693C117.827 438.337 118.454 438.159 119.155 438.159C119.696 438.159 120.132 438.25 120.462 438.432C120.795 438.61 121.053 438.818 121.234 439.057C121.42 439.295 121.564 439.506 121.666 439.688H121.808V438.273H123.467V450.273H121.768ZM119.518 445.722C120.007 445.722 120.42 445.593 120.757 445.335C121.098 445.074 121.356 444.712 121.53 444.25C121.708 443.788 121.797 443.25 121.797 442.636C121.797 442.03 121.71 441.5 121.536 441.045C121.361 440.591 121.106 440.237 120.768 439.983C120.431 439.729 120.015 439.602 119.518 439.602C119.007 439.602 118.581 439.735 118.24 440C117.899 440.265 117.642 440.627 117.467 441.085C117.297 441.544 117.212 442.061 117.212 442.636C117.212 443.22 117.299 443.744 117.473 444.21C117.647 444.676 117.905 445.045 118.246 445.318C118.59 445.587 119.015 445.722 119.518 445.722ZM131.28 443.381V438.273H132.984V447H131.314V445.489H131.223C131.022 445.955 130.7 446.343 130.257 446.653C129.818 446.96 129.27 447.114 128.615 447.114C128.054 447.114 127.558 446.991 127.126 446.744C126.698 446.494 126.361 446.125 126.115 445.636C125.873 445.148 125.751 444.544 125.751 443.824V438.273H127.45V443.619C127.45 444.214 127.615 444.687 127.945 445.04C128.274 445.392 128.702 445.568 129.229 445.568C129.547 445.568 129.863 445.489 130.178 445.33C130.496 445.17 130.759 444.93 130.967 444.608C131.179 444.286 131.284 443.877 131.28 443.381ZM139.028 447.176C138.169 447.176 137.428 446.992 136.807 446.625C136.189 446.254 135.712 445.733 135.375 445.062C135.042 444.388 134.875 443.598 134.875 442.693C134.875 441.799 135.042 441.011 135.375 440.33C135.712 439.648 136.182 439.116 136.784 438.733C137.39 438.35 138.098 438.159 138.909 438.159C139.402 438.159 139.879 438.241 140.341 438.403C140.803 438.566 141.218 438.822 141.585 439.17C141.953 439.519 142.242 439.972 142.455 440.528C142.667 441.081 142.773 441.754 142.773 442.545V443.148H135.835V441.875H141.108C141.108 441.428 141.017 441.032 140.835 440.688C140.653 440.339 140.398 440.064 140.068 439.864C139.742 439.663 139.36 439.562 138.92 439.562C138.443 439.562 138.027 439.68 137.67 439.915C137.318 440.146 137.045 440.449 136.852 440.824C136.663 441.195 136.568 441.598 136.568 442.034V443.028C136.568 443.612 136.67 444.108 136.875 444.517C137.083 444.926 137.373 445.239 137.744 445.455C138.116 445.667 138.549 445.773 139.045 445.773C139.367 445.773 139.661 445.727 139.926 445.636C140.191 445.542 140.42 445.402 140.614 445.216C140.807 445.03 140.955 444.801 141.057 444.528L142.665 444.818C142.536 445.292 142.305 445.706 141.972 446.062C141.642 446.415 141.227 446.689 140.727 446.886C140.231 447.08 139.665 447.176 139.028 447.176ZM151.197 440.403L149.658 440.676C149.593 440.479 149.491 440.292 149.351 440.114C149.214 439.936 149.029 439.79 148.794 439.676C148.559 439.562 148.266 439.506 147.913 439.506C147.432 439.506 147.031 439.614 146.709 439.83C146.387 440.042 146.226 440.316 146.226 440.653C146.226 440.945 146.334 441.18 146.55 441.358C146.766 441.536 147.114 441.682 147.595 441.795L148.982 442.114C149.785 442.299 150.383 442.585 150.777 442.972C151.171 443.358 151.368 443.86 151.368 444.477C151.368 445 151.216 445.466 150.913 445.875C150.614 446.28 150.196 446.598 149.658 446.83C149.124 447.061 148.504 447.176 147.8 447.176C146.822 447.176 146.025 446.968 145.408 446.551C144.79 446.131 144.411 445.534 144.271 444.761L145.913 444.511C146.016 444.939 146.226 445.263 146.544 445.483C146.862 445.699 147.277 445.807 147.788 445.807C148.345 445.807 148.79 445.691 149.124 445.46C149.457 445.225 149.624 444.939 149.624 444.602C149.624 444.33 149.521 444.1 149.317 443.915C149.116 443.729 148.807 443.589 148.391 443.494L146.913 443.17C146.099 442.985 145.497 442.689 145.107 442.284C144.72 441.879 144.527 441.366 144.527 440.744C144.527 440.229 144.671 439.778 144.959 439.392C145.247 439.006 145.644 438.705 146.152 438.489C146.66 438.269 147.241 438.159 147.896 438.159C148.839 438.159 149.582 438.364 150.124 438.773C150.665 439.178 151.023 439.722 151.197 440.403ZM157.31 438.273V439.636H152.543V438.273H157.31ZM153.821 436.182H155.52V444.438C155.52 444.767 155.569 445.015 155.668 445.182C155.766 445.345 155.893 445.456 156.048 445.517C156.207 445.574 156.38 445.602 156.565 445.602C156.702 445.602 156.821 445.593 156.923 445.574C157.026 445.555 157.105 445.54 157.162 445.528L157.469 446.932C157.37 446.97 157.23 447.008 157.048 447.045C156.866 447.087 156.639 447.11 156.366 447.114C155.92 447.121 155.503 447.042 155.116 446.875C154.73 446.708 154.418 446.451 154.179 446.102C153.94 445.754 153.821 445.316 153.821 444.79V436.182ZM159.189 447V438.273H160.888V447H159.189ZM160.047 436.926C159.751 436.926 159.498 436.828 159.286 436.631C159.077 436.43 158.973 436.191 158.973 435.915C158.973 435.634 159.077 435.396 159.286 435.199C159.498 434.998 159.751 434.898 160.047 434.898C160.342 434.898 160.594 434.998 160.803 435.199C161.015 435.396 161.121 435.634 161.121 435.915C161.121 436.191 161.015 436.43 160.803 436.631C160.594 436.828 160.342 436.926 160.047 436.926ZM166.849 447.176C166.031 447.176 165.317 446.989 164.707 446.614C164.098 446.239 163.624 445.714 163.287 445.04C162.95 444.366 162.781 443.578 162.781 442.676C162.781 441.771 162.95 440.979 163.287 440.301C163.624 439.623 164.098 439.097 164.707 438.722C165.317 438.347 166.031 438.159 166.849 438.159C167.668 438.159 168.382 438.347 168.991 438.722C169.601 439.097 170.075 439.623 170.412 440.301C170.749 440.979 170.918 441.771 170.918 442.676C170.918 443.578 170.749 444.366 170.412 445.04C170.075 445.714 169.601 446.239 168.991 446.614C168.382 446.989 167.668 447.176 166.849 447.176ZM166.855 445.75C167.385 445.75 167.825 445.61 168.173 445.33C168.522 445.049 168.779 444.676 168.946 444.21C169.116 443.744 169.202 443.231 169.202 442.67C169.202 442.114 169.116 441.602 168.946 441.136C168.779 440.667 168.522 440.29 168.173 440.006C167.825 439.722 167.385 439.58 166.855 439.58C166.321 439.58 165.878 439.722 165.526 440.006C165.177 440.29 164.918 440.667 164.747 441.136C164.58 441.602 164.497 442.114 164.497 442.67C164.497 443.231 164.58 443.744 164.747 444.21C164.918 444.676 165.177 445.049 165.526 445.33C165.878 445.61 166.321 445.75 166.855 445.75ZM174.513 441.818V447H172.814V438.273H174.445V439.693H174.553C174.753 439.231 175.068 438.86 175.496 438.58C175.928 438.299 176.471 438.159 177.126 438.159C177.721 438.159 178.242 438.284 178.689 438.534C179.136 438.78 179.482 439.148 179.729 439.636C179.975 440.125 180.098 440.729 180.098 441.449V447H178.399V441.653C178.399 441.021 178.234 440.527 177.905 440.17C177.575 439.811 177.123 439.631 176.547 439.631C176.153 439.631 175.803 439.716 175.496 439.886C175.193 440.057 174.952 440.307 174.774 440.636C174.6 440.962 174.513 441.356 174.513 441.818ZM186.611 447V438.273H188.31V447H186.611ZM187.469 436.926C187.173 436.926 186.92 436.828 186.707 436.631C186.499 436.43 186.395 436.191 186.395 435.915C186.395 435.634 186.499 435.396 186.707 435.199C186.92 434.998 187.173 434.898 187.469 434.898C187.764 434.898 188.016 434.998 188.224 435.199C188.437 435.396 188.543 435.634 188.543 435.915C188.543 436.191 188.437 436.43 188.224 436.631C188.016 436.828 187.764 436.926 187.469 436.926ZM192.294 441.818V447H190.595V438.273H192.226V439.693H192.334C192.535 439.231 192.849 438.86 193.277 438.58C193.709 438.299 194.252 438.159 194.908 438.159C195.502 438.159 196.023 438.284 196.47 438.534C196.917 438.78 197.264 439.148 197.51 439.636C197.756 440.125 197.879 440.729 197.879 441.449V447H196.18V441.653C196.18 441.021 196.016 440.527 195.686 440.17C195.357 439.811 194.904 439.631 194.328 439.631C193.934 439.631 193.584 439.716 193.277 439.886C192.974 440.057 192.733 440.307 192.555 440.636C192.381 440.962 192.294 441.356 192.294 441.818ZM204.392 447V438.273H206.023V439.693H206.131C206.313 439.212 206.61 438.837 207.023 438.568C207.436 438.295 207.93 438.159 208.506 438.159C209.089 438.159 209.578 438.295 209.972 438.568C210.369 438.841 210.663 439.216 210.852 439.693H210.943C211.152 439.227 211.483 438.856 211.938 438.58C212.392 438.299 212.934 438.159 213.562 438.159C214.354 438.159 215 438.407 215.5 438.903C216.004 439.4 216.256 440.148 216.256 441.148V447H214.557V441.307C214.557 440.716 214.396 440.288 214.074 440.023C213.752 439.758 213.367 439.625 212.92 439.625C212.367 439.625 211.938 439.795 211.631 440.136C211.324 440.473 211.17 440.907 211.17 441.438V447H209.477V441.199C209.477 440.725 209.33 440.345 209.034 440.057C208.739 439.769 208.354 439.625 207.881 439.625C207.559 439.625 207.261 439.71 206.989 439.881C206.72 440.047 206.502 440.28 206.335 440.58C206.172 440.879 206.091 441.225 206.091 441.619V447H204.392ZM218.533 447V438.273H220.232V447H218.533ZM219.391 436.926C219.095 436.926 218.841 436.828 218.629 436.631C218.421 436.43 218.317 436.191 218.317 435.915C218.317 435.634 218.421 435.396 218.629 435.199C218.841 434.998 219.095 434.898 219.391 434.898C219.686 434.898 219.938 434.998 220.146 435.199C220.358 435.396 220.464 435.634 220.464 435.915C220.464 436.191 220.358 436.43 220.146 436.631C219.938 436.828 219.686 436.926 219.391 436.926ZM224.216 441.818V447H222.517V438.273H224.148V439.693H224.256C224.456 439.231 224.771 438.86 225.199 438.58C225.631 438.299 226.174 438.159 226.83 438.159C227.424 438.159 227.945 438.284 228.392 438.534C228.839 438.78 229.186 439.148 229.432 439.636C229.678 440.125 229.801 440.729 229.801 441.449V447H228.102V441.653C228.102 441.021 227.938 440.527 227.608 440.17C227.278 439.811 226.826 439.631 226.25 439.631C225.856 439.631 225.506 439.716 225.199 439.886C224.896 440.057 224.655 440.307 224.477 440.636C224.303 440.962 224.216 441.356 224.216 441.818ZM235.347 447.17C234.642 447.17 234.013 446.991 233.46 446.631C232.911 446.267 232.479 445.75 232.165 445.08C231.854 444.405 231.699 443.597 231.699 442.653C231.699 441.71 231.856 440.903 232.17 440.233C232.489 439.562 232.924 439.049 233.477 438.693C234.03 438.337 234.657 438.159 235.358 438.159C235.9 438.159 236.335 438.25 236.665 438.432C236.998 438.61 237.256 438.818 237.438 439.057C237.623 439.295 237.767 439.506 237.869 439.688H237.972V435.364H239.67V447H238.011V445.642H237.869C237.767 445.828 237.619 446.04 237.426 446.278C237.237 446.517 236.975 446.725 236.642 446.903C236.309 447.081 235.877 447.17 235.347 447.17ZM235.722 445.722C236.21 445.722 236.623 445.593 236.96 445.335C237.301 445.074 237.559 444.712 237.733 444.25C237.911 443.788 238 443.25 238 442.636C238 442.03 237.913 441.5 237.739 441.045C237.564 440.591 237.309 440.237 236.972 439.983C236.634 439.729 236.218 439.602 235.722 439.602C235.21 439.602 234.784 439.735 234.443 440C234.102 440.265 233.845 440.627 233.67 441.085C233.5 441.544 233.415 442.061 233.415 442.636C233.415 443.22 233.502 443.744 233.676 444.21C233.85 444.676 234.108 445.045 234.449 445.318C234.794 445.587 235.218 445.722 235.722 445.722ZM243.953 443.653V443.545C243.961 442.841 244.031 442.28 244.163 441.864C244.3 441.447 244.493 441.11 244.743 440.852C244.993 440.595 245.294 440.36 245.646 440.148C245.874 440.004 246.078 439.843 246.26 439.665C246.442 439.487 246.586 439.282 246.692 439.051C246.798 438.82 246.851 438.564 246.851 438.284C246.851 437.947 246.771 437.655 246.612 437.409C246.453 437.163 246.241 436.973 245.976 436.841C245.714 436.705 245.423 436.636 245.101 436.636C244.809 436.636 244.531 436.697 244.266 436.818C244 436.939 243.781 437.129 243.607 437.386C243.432 437.64 243.332 437.968 243.305 438.369H241.578C241.605 437.688 241.777 437.112 242.095 436.642C242.413 436.169 242.834 435.811 243.357 435.568C243.883 435.326 244.464 435.205 245.101 435.205C245.798 435.205 246.408 435.335 246.93 435.597C247.453 435.854 247.858 436.216 248.146 436.682C248.438 437.144 248.584 437.684 248.584 438.301C248.584 438.725 248.518 439.108 248.385 439.449C248.252 439.786 248.063 440.087 247.817 440.352C247.574 440.617 247.283 440.852 246.942 441.057C246.62 441.258 246.358 441.466 246.158 441.682C245.961 441.898 245.817 442.153 245.726 442.449C245.635 442.744 245.586 443.11 245.578 443.545V443.653H243.953ZM244.811 447.108C244.5 447.108 244.233 446.998 244.01 446.778C243.786 446.555 243.675 446.286 243.675 445.972C243.675 445.661 243.786 445.396 244.01 445.176C244.233 444.953 244.5 444.841 244.811 444.841C245.118 444.841 245.383 444.953 245.607 445.176C245.834 445.396 245.947 445.661 245.947 445.972C245.947 446.18 245.894 446.371 245.788 446.545C245.686 446.716 245.55 446.852 245.379 446.955C245.209 447.057 245.019 447.108 244.811 447.108Z" fill="#9A9797"/>
</svg>
