<svg width="60" height="10" viewBox="0 0 60 10" fill="none" xmlns="http://www.w3.org/2000/svg">
<path d="M1.9125 9.5L2.725 5.9875L0 3.625L3.6 3.3125L5 0L6.4 3.3125L10 3.625L7.275 5.9875L8.0875 9.5L5 7.6375L1.9125 9.5Z" fill="#FFE234"/>
<path d="M14.4125 9.5L15.225 5.9875L12.5 3.625L16.1 3.3125L17.5 0L18.9 3.3125L22.5 3.625L19.775 5.9875L20.5875 9.5L17.5 7.6375L14.4125 9.5Z" fill="#FFE234"/>
<path d="M26.9125 9.5L27.725 5.9875L25 3.625L28.6 3.3125L30 0L31.4 3.3125L35 3.625L32.275 5.9875L33.0875 9.5L30 7.6375L26.9125 9.5Z" fill="#FFE234"/>
<path d="M39.4125 9.5L40.225 5.9875L37.5 3.625L41.1 3.3125L42.5 0L43.9 3.3125L47.5 3.625L44.775 5.9875L45.5875 9.5L42.5 7.6375L39.4125 9.5Z" fill="#FFE234"/>
<path d="M51.9125 9.5L52.725 5.9875L50 3.625L53.6 3.3125L55 0L56.4 3.3125L60 3.625L57.275 5.9875L58.0875 9.5L55 7.6375L51.9125 9.5Z" fill="#FFE234" fill-opacity="0.51"/>
<path d="M51.9125 9.5L52.725 5.9875L50 3.625L53.6 3.3125L55 0V3.125V5V6.25V7.6375L51.9125 9.5Z" fill="#FFE234"/>
</svg>
